<svg xmlns="http://www.w3.org/2000/svg" width="6300" height="300" viewBox="0 0 6300 300"><defs><style>.cls-1{fill:#49b048;}</style></defs><g id="_1" data-name="1"><path class="cls-1" d="M20.89,221.09l1.61,10.29c3.47,5.73,9.06,13.71,10.71,20.27,4,1.63,13.21,7.43,16.92,9.85,2.6,1.67,8.82,5.85,10.15,8.73,24.36,6.56,54.63,15.88,78.14,25.88a13.9,13.9,0,0,0,5.54,1.13l5.81,0a14.81,14.81,0,0,0,4.62-.76l8.53-2.84c10-3.79,22.49-9.47,32-14.11.94-.46,6.28-2.62,7.3-2.85,2.56-.6,6.1-1.22,9.11-1.93,1.2-.28,3.18-.63,4.4-.79l4.67-.59a28.72,28.72,0,0,1,7.69.28c6.69,1.35,10.47,2.73,18,4.79,6.61,1.81,32.58,1.32,39.76,1.4l-1.13-41.66c-16.37,3.54-36.82,7.22-53.58,6.19-4.57-2.36-13.87-6.87-18.61-8.73l-7.89-2.25-15.51-.28-13.54,4.22c-16.08,5.36-35.4,14.32-52.73,13.52-12-2.93-27.5-5.13-39.76-2.82-2.87-1.34-8.6-3.51-11.84-3.1C65.86,237,59.77,238,51.54,235.6c-5-5.81-14.39-11.4-21.26-16.34a14.83,14.83,0,0,0-7.15-2.73h0l-.43.18a3.14,3.14,0,0,0-2,3.19C20.76,220.25,20.82,220.63,20.89,221.09Z"/><path class="cls-1" d="M64.51,27.54A96,96,0,0,0,40.83,49.22C30,63.16,26,76.43,23.34,85.26A112.83,112.83,0,0,0,18.55,130,107.25,107.25,0,0,0,31.8,172.26a103.58,103.58,0,0,0,35.53,36,113.61,113.61,0,0,0,33,14.08,116.76,116.76,0,0,0,52.45.84L153.9,221l-2-2.29-1.66-.91.95-1.17.21-1.62-.6-1.72-1.41-.88-1.72-2.22-1.06-3.06,1.37-3,2.54-3.38-.28-3.09-1.13-2.22.14-2.18s1.66-1.87,1.76-1.9,2.54-3.7,2.54-3.7l-.14-3.31-1.66-3-1.9-4-3.59-3.55a21.89,21.89,0,0,1-1.94-1.3c0-.11.81-2.64.81-2.75s-1.09-1.76-1.09-1.76l-2.51-2.11-5-5.77L134.72,156a10.06,10.06,0,0,1-.49-1.3c0-.18,1.55-2.82,1.55-2.82l-.1-3.62-2.22-3.63s-1.41-1.44-1.2-1.79,1.65-2.46,1.72-2.57l3.21-4.36.35-3.45.11-3.13-1.06-1.76-2.46-1.13-1.38.07-.42-3.41-1.52-1-8.28-.43-3.24-1.4-8.18-9L105,107.92l-8.89-2.53L92.92,99.9,87,92.09l-7.61-4.44-2.54-5.06s.63-4.86.84-5.71-.63-7.81-.63-7.81l-3.6-5.49-.63-5.49,1.48-6.33L76,47.53l-1.48-3.16L69.23,43.1l.22-11.82Z"/><path class="cls-1" d="M90,14.88a55.69,55.69,0,0,1,12.2-5.49A58.45,58.45,0,0,1,132,8.26l.56,2.67-2.33,1.9-2,1.27v2.61l.63,2.67-.42,3.24L127.18,24l-.63,2.18-1.13,2-4.86.07-3.18-.14-2.68.56L112,30.08l-2.4,1.41-3.46.42-4.08-1.41L99,28l-.91-1.34-2.61-.7-3.38-.64s-1.63-2.95-1.7-3.16-1.2-4.72-1.2-4.72Z"/><path class="cls-1" d="M154.89,9.53a106.67,106.67,0,0,1,29.6,11.4A104.73,104.73,0,0,1,219.18,52.6C229,67.14,232.3,80.54,234.41,89.34a120.08,120.08,0,0,1,3.38,30.41,110.3,110.3,0,0,1-45.68,86.15,99.72,99.72,0,0,1-22.84,11.82c.49-.89,1.27-2.22,2.32-3.74,2.73-3.94,4.8-5.56,7.09-8.13,3.49-3.94,2.58-4.59,6.45-9.87,2.23-3,4.45-5.27,8.88-9.72,7-7,8.05-7,11.21-11.19,2.18-2.85,4.47-5.91,5.71-10.56a25.09,25.09,0,0,0,.63-9.71l.32-1.41-.77-1.16-1.41-1.65.24-1.69-.42-2-4.26-3.28-8.43-6.22-4.72-.53L187,133.16l-7.47-4.61-8.32-6.83-2.4-4.72-3.52-4.15-5.22-.91-5.78.56-4,2.39-5.14,2.4h-4.23l-3-1.9-5.92-3.52-5.86-4-3.1-2.74-3.24-.7s-.07-2.26-.07-2.61-2.19-2.18-2.19-2.39.14-3,.14-3L120.7,93l4.51-.84h9.23l5-.35,2.61-2,3-2.12a3.42,3.42,0,0,1,1.62,1.55c.46,1,0,1.73,0,3.24a7.27,7.27,0,0,0,1.13,4.08c.25.38,1.68,2.46,3.73,2.33a4.42,4.42,0,0,0,3-2,6.26,6.26,0,0,0,1.2-3.3c.19-2.44-1.08-3-1.55-5.71a11.18,11.18,0,0,1,.85-6.33c1-2.22,1.85-2.09,3.8-5a64.24,64.24,0,0,0,3-6.19c2.64-5.72,2.82-6.36,3-7.18.43-2.61-.16-3.31.7-4.65,1.34-2.06,3.37-1.31,4.58-3.3,1.07-1.76-.21-2.81,1-5.35.79-1.67,1.55-1.68,1.83-3a6,6,0,0,0-1.27-4.43c-1.43-2.09-2.54-1.66-5.78-4.37-2.17-1.82-2.44-2.66-3.66-2.74-1-.07-1.19.42-4.16,2-2.82,1.54-3.22,1.43-3.95,2.32-.91,1.12-.55,1.63-1.69,3.24a8.91,8.91,0,0,1-2.4,2.39,7.05,7.05,0,0,1-4.65,1.34,7.24,7.24,0,0,1-4.79-3.1c-1.22-1.64-.6-2.09-2.19-5.42-1.16-2.43-1.7-2.63-2-4.15a8.69,8.69,0,0,1,.49-4.5,13.09,13.09,0,0,1,3.1-4.86c2.15-2.23,3.44-2.38,5.92-4.22a23.52,23.52,0,0,0,5.36-5.64Z"/></g><g id="_2" data-name="2"><path class="cls-1" d="M320.89,221.09l1.61,10.29c3.47,5.73,9.06,13.71,10.71,20.27,4,1.63,13.21,7.43,16.92,9.85,2.6,1.67,8.82,5.85,10.15,8.73,24.36,6.56,54.63,15.88,78.14,25.88a13.9,13.9,0,0,0,5.54,1.13l5.81,0a14.81,14.81,0,0,0,4.62-.76l8.53-2.84c10-3.79,22.49-9.47,32-14.11.94-.46,6.28-2.62,7.3-2.85,2.56-.6,6.1-1.22,9.11-1.93,1.2-.28,3.18-.63,4.4-.79l4.67-.59a28.72,28.72,0,0,1,7.69.28c6.69,1.35,10.47,2.73,18,4.79,6.61,1.81,32.58,1.32,39.76,1.4l-1.13-41.66c-16.37,3.54-36.82,7.22-53.58,6.19-4.57-2.36-13.87-6.87-18.61-8.73l-7.89-2.25-15.51-.28-13.54,4.22c-16.08,5.36-35.4,14.32-52.73,13.52-12-2.93-27.5-5.13-39.76-2.82-2.87-1.34-8.6-3.51-11.84-3.1-5.42-7.88-11.51-6.87-19.74-9.29-5-5.81-14.39-11.4-21.26-16.34a14.83,14.83,0,0,0-7.15-2.73h0l-.43.18a3.14,3.14,0,0,0-2,3.19C320.76,220.25,320.82,220.63,320.89,221.09Z"/><path class="cls-1" d="M358.7,29a96.1,96.1,0,0,0-22.37,23c-10,14.55-13.24,28-15.32,37a112.66,112.66,0,0,0-2.15,45,107.24,107.24,0,0,0,15.73,41.37,103.66,103.66,0,0,0,37.59,33.88A113.7,113.7,0,0,0,406,221.35a116.74,116.74,0,0,0,52.4-2.25l1-2.28-2.11-2.16-1.7-.82.88-1.22.11-1.62-.7-1.69-1.46-.8-1.85-2.11-1.24-3,1.2-3.07,2.33-3.52-.46-3.08-1.26-2.14v-2.19s1.55-2,1.65-2,2.32-3.84,2.32-3.84l-.34-3.29-1.83-2.86-2.14-3.89L449,170.2a20.43,20.43,0,0,1-2-1.19c0-.1.66-2.68.65-2.79s-1.19-1.69-1.19-1.69l-2.63-2-5.33-5.47L436.37,153a9.93,9.93,0,0,1-.57-1.27c0-.17,1.38-2.9,1.38-2.9l-.32-3.61-2.43-3.49s-1.49-1.36-1.3-1.72,1.51-2.56,1.57-2.67l2.95-4.54.14-3.47-.08-3.13-1.15-1.69-2.53-1-1.37.15-.63-3.38-1.57-.86-8.29.06-3.32-1.21-8.69-8.48-6.32-3-9-2-3.49-5.29L385,92.09l-7.87-4-2.83-4.91s.35-4.89.51-5.74-1.09-7.76-1.09-7.76l-3.92-5.27-1-5.44,1.11-6.41,1.44-4.32-1.67-3.07-5.35-1-.49-11.81Z"/><path class="cls-1" d="M386.06,11a56.29,56.29,0,0,1,12.19-5.49,58.43,58.43,0,0,1,29.82-1.12L428.64,7l-2.33,1.9-2,1.27v2.6l.63,2.68-.42,3.23-1.27,1.41-.64,2.18-1.12,2-4.87.08-3.17-.15-2.68.57-2.68,1.41-2.39,1.4-3.46.43-4.09-1.41-3.1-2.54-.92-1.33-2.6-.71-3.39-.63s-1.62-3-1.69-3.17-1.2-4.71-1.2-4.71Z"/><path class="cls-1" d="M465.17.43a107,107,0,0,1,29.26,12.29,104.41,104.41,0,0,1,33.71,32.7c9.35,14.82,12.28,28.32,14.12,37.18a119.72,119.72,0,0,1,2.48,30.49,106.81,106.81,0,0,1-19,55.62,108.68,108.68,0,0,1-29.23,29.12A99.87,99.87,0,0,1,473.31,209c.52-.88,1.34-2.18,2.44-3.68,2.84-3.85,5-5.41,7.32-7.91,3.61-3.83,2.72-4.51,6.75-9.67,2.32-3,4.6-5.14,9.16-9.45,7.19-6.78,8.26-6.81,11.54-10.85,2.27-2.79,4.65-5.77,6-10.38a25.33,25.33,0,0,0,.92-9.69l.36-1.4-.74-1.18-1.36-1.7.3-1.68-.36-2-4.17-3.4-8.23-6.48-4.71-.67-5-3.81-7.33-4.83-8.11-7.08-2.26-4.78-3.4-4.26L467.25,103l-5.8.39-4.09,2.27-5.21,2.24-4.23-.13-3-2L439.13,102l-5.73-4.12-3-2.83-3.22-.8s0-2.26,0-2.61-2.12-2.25-2.11-2.46.23-3,.23-3l3.21-3.42,4.53-.71,9.23.28,5-.21,2.66-1.89,3.09-2a3.39,3.39,0,0,1,1.58,1.6c.43,1,0,1.73-.1,3.24a7.39,7.39,0,0,0,1,4.11c.24.38,1.6,2.51,3.66,2.43a4.38,4.38,0,0,0,3.09-2,6.33,6.33,0,0,0,1.3-3.27c.26-2.43-1-3.08-1.38-5.74a11.19,11.19,0,0,1,1-6.31c1-2.19,1.91-2,3.95-4.88a65.58,65.58,0,0,0,3.22-6.1c2.81-5.64,3-6.27,3.17-7.09.51-2.6-.06-3.31.84-4.62,1.41-2,3.41-1.21,4.68-3.17,1.12-1.72-.12-2.81,1.15-5.32.83-1.64,1.6-1.63,1.92-3A6,6,0,0,0,481,33.79c-1.38-2.13-2.5-1.72-5.65-4.53-2.12-1.89-2.36-2.74-3.58-2.86-.95-.09-1.2.39-4.22,1.92-2.87,1.45-3.27,1.34-4,2.2-.94,1.09-.6,1.61-1.78,3.19A9,9,0,0,1,459.31,36a7,7,0,0,1-4.69,1.2,7.25,7.25,0,0,1-4.7-3.24c-1.17-1.68-.54-2.12-2-5.48-1.09-2.47-1.62-2.68-1.85-4.21a8.69,8.69,0,0,1,.63-4.49,13.07,13.07,0,0,1,3.24-4.76c2.21-2.17,3.51-2.28,6.05-4.05a23.31,23.31,0,0,0,5.52-5.47Z"/></g><g id="_3" data-name="3"><path class="cls-1" d="M620.89,221.09l1.61,10.29c3.47,5.73,9.06,13.71,10.71,20.27,4,1.63,13.21,7.43,16.92,9.85,2.6,1.67,8.82,5.85,10.15,8.73,24.36,6.56,54.63,15.88,78.14,25.88a13.9,13.9,0,0,0,5.54,1.13l5.81,0a14.81,14.81,0,0,0,4.62-.76l8.53-2.84c10-3.79,22.49-9.47,32-14.11.94-.46,6.28-2.62,7.3-2.85,2.56-.6,6.1-1.22,9.11-1.93,1.2-.28,3.18-.63,4.4-.79l4.67-.59a28.72,28.72,0,0,1,7.69.28c6.69,1.35,10.47,2.73,18,4.79,6.61,1.81,32.58,1.32,39.76,1.4l-1.13-41.66c-16.37,3.54-36.82,7.22-53.58,6.19-4.57-2.36-13.87-6.87-18.61-8.73l-7.89-2.25-15.51-.28-13.54,4.22c-16.08,5.36-35.4,14.32-52.73,13.52-12-2.93-27.5-5.13-39.76-2.82-2.87-1.34-8.6-3.51-11.84-3.1-5.42-7.88-11.51-6.87-19.74-9.29-5-5.81-14.39-11.4-21.26-16.34a14.83,14.83,0,0,0-7.15-2.73h0l-.43.18a3.14,3.14,0,0,0-2,3.19C620.76,220.25,620.82,220.63,620.89,221.09Z"/><path class="cls-1" d="M647.52,28.68a95.76,95.76,0,0,0-21.07,24.23C617.28,68,614.76,81.63,613.18,90.7a112.65,112.65,0,0,0,.33,45,107.31,107.31,0,0,0,18,40.45,103.48,103.48,0,0,0,39.4,31.76,113.66,113.66,0,0,0,34.37,10.23A116.7,116.7,0,0,0,757.47,213l.87-2.33-2.22-2-1.75-.72.81-1.26,0-1.63-.79-1.65-1.5-.71-2-2-1.39-2.92,1-3.13,2.14-3.64-.64-3-1.37-2.07-.11-2.18s1.44-2.05,1.54-2.09,2.1-4,2.1-4l-.52-3.27-2-2.75-2.35-3.77-4-3.12a19.69,19.69,0,0,1-2.08-1.08c0-.1.51-2.71.5-2.82s-1.29-1.62-1.29-1.62l-2.73-1.81-5.63-5.17-2.29-3.95a10,10,0,0,1-.64-1.24c0-.17,1.22-3,1.22-3l-.52-3.59-2.62-3.35s-1.56-1.27-1.39-1.65,1.36-2.63,1.42-2.74,2.69-4.7,2.69-4.7l0-3.47-.25-3.13-1.25-1.62-2.58-.84-1.36.23-.81-3.35-1.61-.77-8.28.52-3.38-1-9.15-8-6.48-2.66-9.11-1.51L684,97.33l-6.77-7.09-8.07-3.54L666,82s.07-4.9.19-5.76-1.52-7.69-1.52-7.69l-4.2-5.05-1.25-5.38.75-6.46,1.2-4.39-1.83-3-5.4-.66-1.14-11.77Z"/><path class="cls-1" d="M683.12,11.66a56.36,56.36,0,0,1,11.63-6.61,58.5,58.5,0,0,1,29.58-3.94l.81,2.61L723,5.83l-1.84,1.45.24,2.59.89,2.61-.12,3.26L721,17.26l-.42,2.23-.94,2.07-4.84.53-3.17.16-2.61.81-2.54,1.66-2.25,1.62-3.4.75-4.2-1-3.33-2.23-1-1.24-2.66-.45-3.43-.32s-1.89-2.79-2-3-1.64-4.58-1.64-4.58Z"/><path class="cls-1" d="M777,1.11a106.77,106.77,0,0,1,28.68,13.58,104.71,104.71,0,0,1,32.22,34.17c8.68,15.23,11,28.84,12.44,37.78a119.41,119.41,0,0,1,1.11,30.57,109.87,109.87,0,0,1-7.33,29.94A110.81,110.81,0,0,1,830,171.93a108.78,108.78,0,0,1-30.5,27.78,99.69,99.69,0,0,1-23.65,10.09c.56-.86,1.43-2.12,2.59-3.57,3-3.71,5.21-5.18,7.68-7.57,3.77-3.67,2.92-4.39,7.17-9.37,2.45-2.87,4.83-4.92,9.58-9,7.48-6.45,8.55-6.43,12-10.32,2.39-2.69,4.9-5.56,6.48-10.11a25.39,25.39,0,0,0,1.36-9.63l.42-1.38-.68-1.22-1.29-1.75.37-1.67-.26-2.07-4-3.58-7.94-6.84-4.67-.88-4.86-4-7.11-5.16-7.78-7.43-2-4.88-3.2-4.4-5.14-1.3-5.81.13-4.18,2.08-5.31,2-4.22-.31-2.88-2.12-5.64-4-5.54-4.37-2.89-3-3.18-.94s.09-2.26.12-2.61-2-2.34-2-2.55.36-2.93.36-2.93l3.36-3.28,4.56-.51,9.21.69,5,0,2.74-1.77,3.18-1.88A3.47,3.47,0,0,1,762.93,80c.38,1-.12,1.73-.25,3.23a7.4,7.4,0,0,0,.82,4.15c.23.4,1.5,2.58,3.56,2.6a4.42,4.42,0,0,0,3.17-1.81A6.26,6.26,0,0,0,771.67,85c.37-2.42-.84-3.12-1.12-5.8a11.26,11.26,0,0,1,1.32-6.25c1.14-2.14,2-2,4.17-4.7a67.35,67.35,0,0,0,3.48-6c3.07-5.51,3.29-6.13,3.49-6.94.63-2.58.09-3.32,1-4.58,1.49-2,3.46-1.06,4.82-3,1.19-1.67,0-2.81,1.38-5.26.91-1.6,1.67-1.56,2.06-2.88a6,6,0,0,0-.94-4.52C790.1,33,789,33.3,785.94,30.36c-2-2-2.23-2.84-3.45-3-1-.14-1.22.33-4.3,1.72s-3.32,1.19-4.11,2c-1,1.05-.67,1.59-1.93,3.11a8.84,8.84,0,0,1-2.57,2.2,7,7,0,0,1-4.74,1A7.26,7.26,0,0,1,760.29,34c-1.09-1.74-.44-2.14-1.77-5.57-1-2.51-1.5-2.75-1.66-4.29a9,9,0,0,1,.83-4.46A13.09,13.09,0,0,1,761.15,15c2.3-2.06,3.6-2.11,6.22-3.77A23.76,23.76,0,0,0,773.13,6Z"/></g><g id="_4" data-name="4"><path class="cls-1" d="M920.89,221.09l1.61,10.29c3.47,5.73,9.06,13.71,10.71,20.27,4,1.63,13.21,7.43,16.92,9.85,2.6,1.67,8.82,5.85,10.15,8.73,24.36,6.56,54.63,15.88,78.14,25.88a13.9,13.9,0,0,0,5.54,1.13l5.81,0a14.81,14.81,0,0,0,4.62-.76l8.53-2.84c10-3.79,22.49-9.47,32-14.11.94-.46,6.28-2.62,7.3-2.85,2.56-.6,6.1-1.22,9.11-1.93,1.2-.28,3.18-.63,4.4-.79l4.67-.59a28.72,28.72,0,0,1,7.69.28c6.69,1.35,10.47,2.73,18,4.79,6.61,1.81,32.58,1.32,39.76,1.4l-1.13-41.66c-16.37,3.54-36.82,7.22-53.58,6.19-4.57-2.36-13.87-6.87-18.61-8.73l-7.89-2.25-15.51-.28-13.54,4.22c-16.08,5.36-35.4,14.32-52.73,13.52-12-2.93-27.5-5.13-39.76-2.82-2.87-1.34-8.6-3.51-11.84-3.1-5.42-7.88-11.51-6.87-19.74-9.29-5-5.81-14.39-11.4-21.26-16.34a14.83,14.83,0,0,0-7.15-2.73h0l-.43.18a3.14,3.14,0,0,0-2,3.19C920.76,220.25,920.82,220.63,920.89,221.09Z"/><path class="cls-1" d="M931.94,35.35a92.66,92.66,0,0,0-19.05,24.5c-8.06,15-9.76,28.33-10.81,37.17a108.88,108.88,0,0,0,2.7,43.44,103.52,103.52,0,0,0,19.48,38.08A100,100,0,0,0,964,207.11a109.63,109.63,0,0,0,33.72,8.06,112.79,112.79,0,0,0,50.11-7.71l.71-2.29-2.25-1.86-1.73-.61.72-1.26-.06-1.57-.85-1.55-1.49-.61-2-1.83-1.51-2.75.83-3.07,1.87-3.63-.77-2.91-1.44-1.93-.22-2.1s1.28-2,1.37-2.09,1.82-3.94,1.82-3.94l-.67-3.13-2.06-2.54-2.46-3.52-4-2.8a19.44,19.44,0,0,1-2-.93c0-.1.34-2.64.32-2.74s-1.32-1.5-1.32-1.5l-2.73-1.61-5.71-4.69-2.42-3.69a9.87,9.87,0,0,1-.69-1.16c0-.17,1-2.93,1-2.93l-.68-3.44-2.71-3.09s-1.58-1.15-1.43-1.52,1.18-2.62,1.23-2.73l2.34-4.68-.22-3.34-.41-3-1.29-1.51-2.53-.67-1.3.29-1-3.18-1.6-.66-8,.94-3.32-.82-9.25-7.22-6.39-2.22-8.87-1-3.92-4.72-6.91-6.48-8-3-3.24-4.42s-.19-4.73-.12-5.57-1.87-7.34-1.87-7.34l-4.32-4.65-1.5-5.13.38-6.27.93-4.3-1.92-2.78L939,49.4l-1.71-11.3Z"/><path class="cls-1" d="M976,11.66a52,52,0,0,1,10.42-5.6,55.78,55.78,0,0,1,26.46-3.45l.72,2.18-1.92,1.78L1010,7.79l.2,2.16.78,2.18-.12,2.73-1,1.28-.39,1.87-.85,1.73-4.33.47-2.83.15-2.34.7-2.28,1.39-2,1.38-3,.64L988,23.64l-3-1.84-.92-1-2.38-.37-3.06-.24s-1.67-2.32-1.75-2.49-1.44-3.82-1.44-3.82Z"/><path class="cls-1" d="M1081.18,2.26A100,100,0,0,1,1107.5,16a97.81,97.81,0,0,1,28.87,33.16c7.55,14.57,9.22,27.39,10.23,35.8a111.4,111.4,0,0,1-.1,28.64A100,100,0,0,1,1124.37,164a101.81,101.81,0,0,1-29.56,24.85,93.25,93.25,0,0,1-22.5,8.56,39.18,39.18,0,0,1,2.56-3.24c3-3.36,5.06-4.65,7.46-6.8,3.66-3.29,2.89-4,7.05-8.49,2.4-2.6,4.7-4.43,9.3-8.08,7.24-5.76,8.24-5.7,11.62-9.21,2.33-2.43,4.79-5,6.44-9.21a23.73,23.73,0,0,0,1.63-9l.44-1.27-.59-1.17-1.14-1.69.41-1.54-.17-1.94-3.62-3.5-7.17-6.7-4.34-1-4.39-4-6.46-5.08-7-7.24-1.73-4.64-2.83-4.24L1075,98.05l-5.43-.09-4,1.79-5,1.68-3.93-.45-2.62-2.1-5.13-3.9-5-4.29-2.59-2.89-2.94-1s.18-2.1.21-2.43-1.8-2.26-1.77-2.46.44-2.73.44-2.73l3.26-2.94,4.29-.31,8.59,1,4.69.21,2.64-1.55,3-1.64a3.17,3.17,0,0,1,1.35,1.61c.32,1-.18,1.61-.35,3a6.89,6.89,0,0,0,.61,3.92c.2.38,1.3,2.46,3.23,2.56a4.16,4.16,0,0,0,3-1.58,6,6,0,0,0,1.46-2.95c.44-2.24-.67-3-.83-5.46a10.56,10.56,0,0,1,1.46-5.81c1.15-1.95,2-1.74,4.08-4.24a62.33,62.33,0,0,0,3.48-5.43c3.07-5,3.31-5.61,3.52-6.36.68-2.39.21-3.1,1.15-4.25,1.47-1.78,3.28-.86,4.62-2.58,1.18-1.52.1-2.63,1.49-4.87.9-1.47,1.62-1.4,2-2.62a5.64,5.64,0,0,0-.71-4.26c-1.11-2.1-2.19-1.81-4.91-4.68-1.83-1.93-2-2.74-3.12-2.94-.88-.16-1.15.26-4.08,1.45s-3.15,1-3.92,1.74c-1,.94-.69,1.45-1.92,2.83a8.49,8.49,0,0,1-2.49,2,6.62,6.62,0,0,1-4.47.75,6.76,6.76,0,0,1-4.12-3.4c-1-1.66-.34-2-1.46-5.27-.81-2.38-1.3-2.63-1.39-4.07a8.3,8.3,0,0,1,.94-4.14,12.3,12.3,0,0,1,3.41-4.19c2.23-1.84,3.45-1.84,6-3.29a22,22,0,0,0,5.59-4.66Z"/></g><g id="_5" data-name="5"><path class="cls-1" d="M1220.89,221.09l1.61,10.29c3.47,5.73,9.06,13.71,10.71,20.27,4,1.63,13.21,7.43,16.92,9.85,2.6,1.67,8.82,5.85,10.15,8.73,24.36,6.56,54.63,15.88,78.14,25.88a13.9,13.9,0,0,0,5.54,1.13l5.81,0a14.81,14.81,0,0,0,4.62-.76l8.53-2.84c10-3.79,22.49-9.47,32-14.11.94-.46,6.28-2.62,7.3-2.85,2.56-.6,6.1-1.22,9.11-1.93,1.2-.28,3.18-.63,4.4-.79l4.67-.59a28.72,28.72,0,0,1,7.69.28c6.69,1.35,10.47,2.73,18,4.79,6.61,1.81,32.58,1.32,39.76,1.4l-1.13-41.66c-16.37,3.54-36.82,7.22-53.58,6.19-4.57-2.36-13.87-6.87-18.61-8.73l-7.89-2.25-15.51-.28-13.54,4.22c-16.08,5.36-35.4,14.32-52.73,13.52-12-2.93-27.5-5.13-39.76-2.82-2.87-1.34-8.6-3.51-11.84-3.1-5.42-7.88-11.51-6.87-19.74-9.29-5-5.81-14.39-11.4-21.26-16.34a14.83,14.83,0,0,0-7.15-2.73h0l-.43.18a3.14,3.14,0,0,0-2,3.19C1220.76,220.25,1220.82,220.63,1220.89,221.09Z"/><path class="cls-1" d="M1231.94,39.89a82.89,82.89,0,0,0-17,21.88c-7.2,13.43-8.72,25.31-9.66,33.21a97.43,97.43,0,0,0,2.41,38.79,92.67,92.67,0,0,0,17.41,34,89.41,89.41,0,0,0,35.46,25.52,97.89,97.89,0,0,0,30.12,7.2,100.82,100.82,0,0,0,44.76-6.89l.64-2.05-2-1.66-1.54-.54.64-1.12-.06-1.41-.76-1.38-1.33-.55-1.79-1.63-1.34-2.46.74-2.74,1.67-3.25-.69-2.59-1.28-1.72-.2-1.88s1.14-1.83,1.22-1.87,1.63-3.52,1.63-3.52l-.6-2.79-1.84-2.28-2.2-3.14-3.58-2.5a18.41,18.41,0,0,1-1.84-.83c0-.09.31-2.36.3-2.45s-1.19-1.34-1.19-1.34l-2.44-1.43-5.09-4.19-2.17-3.3a9.62,9.62,0,0,1-.61-1c0-.15.91-2.62.91-2.62l-.61-3.07-2.42-2.76s-1.41-1-1.28-1.35,1-2.34,1.1-2.44,2.1-4.18,2.1-4.18l-.2-3-.37-2.68-1.15-1.34-2.27-.6-1.16.26-.85-2.85-1.43-.59-7.11.85-3-.73-8.26-6.45-5.71-2-7.93-.87-3.5-4.21-6.17-5.79-7.12-2.67-2.9-4s-.16-4.22-.1-5a64.82,64.82,0,0,0-1.68-6.56l-3.85-4.15-1.34-4.58.34-5.61.83-3.84-1.72-2.48-4.68-.31-1.54-10.09Z"/><path class="cls-1" d="M1263.94,9.85a46.9,46.9,0,0,1,9.26-5,49.58,49.58,0,0,1,23.51-3.07l.64,1.94-1.71,1.58-1.47,1.08.18,1.93.69,1.93-.11,2.42-.9,1.14-.35,1.66-.76,1.54-3.84.42-2.52.13-2.08.62-2,1.24-1.8,1.22-2.7.57-3.33-.73L1272,18.86l-.82-.92-2.11-.33-2.73-.21s-1.48-2.07-1.56-2.22-1.27-3.39-1.27-3.39Z"/><path class="cls-1" d="M1390.06,5.77a96.49,96.49,0,0,1,24.23,15.09,94.11,94.11,0,0,1,25.28,33.87c6.19,14.5,6.86,26.91,7.23,35a107.88,107.88,0,0,1-2.16,27.45,99.23,99.23,0,0,1-55,68.38,89.69,89.69,0,0,1-22.18,6.58c.59-.71,1.5-1.75,2.69-2.92,3.07-3,5.18-4.09,7.64-6,3.75-2.89,3.06-3.62,7.37-7.63,2.49-2.32,4.82-3.9,9.49-7.08,7.35-5,8.31-4.87,11.8-8a25.77,25.77,0,0,0,6.84-8.36,23.14,23.14,0,0,0,2.21-8.48l.52-1.19-.49-1.15-1-1.7.51-1.45,0-1.88-3.22-3.62-6.38-6.93-4.09-1.26-3.93-4.11-5.82-5.34-6.19-7.44-1.32-4.58-2.41-4.26-4.46-1.7-5.2-.48-4,1.44-4.95,1.24-3.74-.72-2.35-2.19-4.64-4.11-4.5-4.48-2.28-3-2.74-1.17s.32-2,.38-2.32-1.56-2.29-1.53-2.48.63-2.59.63-2.59l3.33-2.58,4.13,0,8.16,1.56,4.49.54,2.64-1.3,3-1.35a3,3,0,0,1,1.17,1.64c.24,1-.28,1.53-.55,2.86a6.56,6.56,0,0,0,.31,3.8c.16.38,1.07,2.45,2.91,2.68a3.93,3.93,0,0,0,3-1.29,5.67,5.67,0,0,0,1.62-2.72c.58-2.12-.44-2.87-.4-5.3a10,10,0,0,1,1.82-5.45c1.23-1.79,2-1.53,4.21-3.77.58-.59,1.64-2.06,3.73-5,3.3-4.6,3.57-5.14,3.83-5.84.83-2.24.42-3,1.41-4,1.53-1.6,3.2-.59,4.61-2.14,1.24-1.37.29-2.52,1.78-4.56,1-1.34,1.65-1.23,2.13-2.37a5.4,5.4,0,0,0-.37-4.13c-.92-2.09-2-1.89-4.37-4.84-1.61-2-1.7-2.76-2.77-3-.84-.22-1.12.17-4,1.09s-3.1.73-3.89,1.39c-1,.83-.76,1.34-2,2.57a7.85,7.85,0,0,1-2.52,1.71,6.31,6.31,0,0,1-4.34.39,6.49,6.49,0,0,1-3.71-3.54c-.8-1.67-.18-2-1-5.16-.62-2.35-1.06-2.61-1-4a8.07,8.07,0,0,1,1.2-3.9,11.86,11.86,0,0,1,3.57-3.76c2.27-1.61,3.44-1.52,6-2.73a21.33,21.33,0,0,0,5.69-4.07Z"/></g><g id="_6" data-name="6"><path class="cls-1" d="M1520.89,221.09l1.61,10.29c3.47,5.73,9.06,13.71,10.71,20.27,4,1.63,13.21,7.43,16.92,9.85,2.6,1.67,8.82,5.85,10.15,8.73,24.36,6.56,54.63,15.88,78.14,25.88a13.9,13.9,0,0,0,5.54,1.13l5.81,0a14.81,14.81,0,0,0,4.62-.76l8.53-2.84c10-3.79,22.49-9.47,32-14.11.94-.46,6.28-2.62,7.3-2.85,2.56-.6,6.1-1.22,9.11-1.93,1.2-.28,3.18-.63,4.4-.79l4.67-.59a28.72,28.72,0,0,1,7.69.28c6.69,1.35,10.47,2.73,18,4.79,6.61,1.81,32.58,1.32,39.76,1.4l-1.13-41.66c-16.37,3.54-36.82,7.22-53.58,6.19-4.57-2.36-13.87-6.87-18.61-8.73l-7.89-2.25-15.51-.28-13.54,4.22c-16.08,5.36-35.4,14.32-52.73,13.52-12-2.93-27.5-5.13-39.76-2.82-2.87-1.34-8.6-3.51-11.84-3.1-5.42-7.88-11.51-6.87-19.74-9.29-5-5.81-14.39-11.4-21.26-16.34a14.83,14.83,0,0,0-7.15-2.73h0l-.43.18a3.14,3.14,0,0,0-2,3.19C1520.76,220.25,1520.82,220.63,1520.89,221.09Z"/><path class="cls-1" d="M1539.5,45.52a78.63,78.63,0,0,0-18.33,18.9c-8.19,11.93-10.86,23-12.56,30.35a92.28,92.28,0,0,0-1.74,36.87,88,88,0,0,0,12.9,33.92,85,85,0,0,0,30.84,27.77,93.23,93.23,0,0,0,27.69,9.91,95.77,95.77,0,0,0,43-1.86l.81-1.87-1.72-1.78-1.4-.66.72-1,.09-1.34-.57-1.38-1.2-.65-1.52-1.73-1-2.46,1-2.51,1.91-2.89-.38-2.52-1-1.76V177s1.27-1.61,1.35-1.64,1.9-3.15,1.9-3.15l-.27-2.7-1.5-2.34-1.76-3.19-3.11-2.74a15.75,15.75,0,0,1-1.65-1c0-.09.53-2.2.53-2.29s-1-1.38-1-1.38l-2.15-1.61-4.38-4.48-1.71-3.34a7.57,7.57,0,0,1-.46-1c0-.14,1.13-2.38,1.13-2.38l-.26-3-2-2.86s-1.22-1.11-1.07-1.41,1.24-2.1,1.29-2.19,2.41-3.73,2.41-3.73l.12-2.84-.06-2.57-1-1.38-2.08-.81-1.12.13-.51-2.77-1.29-.71-6.8.06-2.72-1-7.13-6.94-5.19-2.47-7.39-1.64-2.86-4.34-5.23-6.11L1554.6,94l-2.32-4s.28-4,.41-4.71a60.31,60.31,0,0,0-.9-6.36l-3.21-4.32-.78-4.46.9-5.26,1.18-3.54-1.37-2.52-4.39-.78-.4-9.69Z"/><path class="cls-1" d="M1575.29,10.94a38.48,38.48,0,0,1,7.73-4.1,41.81,41.81,0,0,1,19.59-2.55l.53,1.59-1.43,1.31-1.22.89.15,1.58.57,1.59-.09,2-.76.93-.29,1.37-.63,1.27-3.2.34-2.1.12-1.74.51-1.68,1-1.5,1-2.26.47-2.77-.6L1582,18.34l-.68-.76-1.77-.26-2.26-.17s-1.24-1.7-1.3-1.83-1.06-2.79-1.06-2.79Z"/><path class="cls-1" d="M1679.27,1.81a88.14,88.14,0,0,1,22.94,12.44,86.09,86.09,0,0,1,24.93,29.52c6.44,12.89,7.73,24.17,8.51,31.58a98.41,98.41,0,0,1-.46,25.15,87.82,87.82,0,0,1-20.11,44,89.35,89.35,0,0,1-26.29,21.44,82.13,82.13,0,0,1-19.88,7.22c.5-.68,1.27-1.67,2.29-2.81,2.64-2.91,4.51-4,6.64-5.87,3.27-2.84,2.6-3.47,6.31-7.37a68,68,0,0,1,8.27-7c6.44-5,7.32-4.9,10.33-7.94a23.51,23.51,0,0,0,5.78-8,20.92,20.92,0,0,0,1.55-7.85l.41-1.12-.51-1-1-1.5.38-1.35-.12-1.71-3.13-3.12-6.21-6-3.8-.94-3.81-3.53-5.6-4.55L1680.65,95l-1.46-4.1-2.43-3.76-4.16-1.3-4.77-.16-3.53,1.53-4.45,1.4-3.45-.44-2.27-1.88-4.46-3.49L1645.32,79l-2.24-2.57-2.57-.92s.18-1.84.22-2.13-1.55-2-1.53-2.18.43-2.4.43-2.4l2.9-2.54,3.77-.21,7.53,1,4.12.25,2.34-1.33,2.69-1.4a2.76,2.76,0,0,1,1.16,1.43c.27.88-.18,1.41-.34,2.64a6,6,0,0,0,.48,3.45c.17.34,1.11,2.18,2.8,2.29a3.64,3.64,0,0,0,2.69-1.34,5.18,5.18,0,0,0,1.33-2.57c.41-2-.55-2.61-.66-4.82a9.27,9.27,0,0,1,1.36-5.07c1-1.71,1.74-1.51,3.64-3.67.5-.58,1.38-2,3.13-4.73,2.76-4.39,3-4.89,3.18-5.55.63-2.08.22-2.71,1.06-3.71,1.32-1.54,2.89-.71,4.09-2.21,1.06-1.32.13-2.31,1.37-4.26.82-1.27,1.44-1.2,1.82-2.27a5,5,0,0,0-.56-3.75c-1-1.86-1.9-1.62-4.26-4.18-1.58-1.72-1.7-2.43-2.69-2.62-.78-.16-1,.21-3.61,1.22s-2.78.83-3.47,1.48c-.86.81-.62,1.26-1.72,2.46a7.48,7.48,0,0,1-2.21,1.69,5.83,5.83,0,0,1-3.94.6,6,6,0,0,1-3.58-3c-.82-1.48-.26-1.78-1.2-4.66-.69-2.1-1.11-2.32-1.17-3.59a7.19,7.19,0,0,1,.88-3.62,10.79,10.79,0,0,1,3-3.64c2-1.59,3.06-1.57,5.28-2.81a19.29,19.29,0,0,0,5-4Z"/></g><g id="_7" data-name="7"><path class="cls-1" d="M1820.89,221.09l1.61,10.29c3.47,5.73,9.06,13.71,10.71,20.27,4,1.63,13.21,7.43,16.92,9.85,2.6,1.67,8.82,5.85,10.15,8.73,24.36,6.56,54.63,15.88,78.14,25.88a13.9,13.9,0,0,0,5.54,1.13l5.81,0a14.81,14.81,0,0,0,4.62-.76l8.53-2.84c10-3.79,22.49-9.47,32-14.11.94-.46,6.28-2.62,7.3-2.85,2.56-.6,6.1-1.22,9.11-1.93,1.2-.28,3.18-.63,4.4-.79l4.67-.59a28.72,28.72,0,0,1,7.69.28c6.69,1.35,10.47,2.73,18,4.79,6.61,1.81,32.58,1.32,39.76,1.4l-1.13-41.66c-16.37,3.54-36.82,7.22-53.58,6.19-4.57-2.36-13.87-6.87-18.61-8.73l-7.89-2.25-15.51-.28-13.54,4.22c-16.08,5.36-35.4,14.32-52.73,13.52-12-2.93-27.5-5.13-39.76-2.82-2.87-1.34-8.6-3.51-11.84-3.1-5.42-7.88-11.51-6.87-19.74-9.29-5-5.81-14.39-11.4-21.26-16.34a14.83,14.83,0,0,0-7.15-2.73h0l-.43.18a3.14,3.14,0,0,0-2,3.19C1820.76,220.25,1820.82,220.63,1820.89,221.09Z"/><path class="cls-1" d="M1855.27,62.24a72.19,72.19,0,0,0-18.93,15c-8.87,9.9-12.61,19.65-15,26.15a84.74,84.74,0,0,0-6,33.38,80.61,80.61,0,0,0,7.74,32.41,78,78,0,0,0,24.79,28.94,85.66,85.66,0,0,0,24,12.3,87.91,87.91,0,0,0,39.35,3.39l1-1.61-1.36-1.82-1.2-.77.77-.82.25-1.21-.36-1.33-1-.73-1.18-1.76-.64-2.35,1.19-2.18,2.09-2.4,0-2.34-.73-1.73.22-1.63s1.34-1.31,1.42-1.33,2.1-2.64,2.1-2.64l.07-2.5-1.09-2.3-1.22-3.12-2.51-2.86a14.91,14.91,0,0,1-1.39-1.08c0-.08.75-1.94.75-2s-.73-1.37-.73-1.37l-1.77-1.72-3.45-4.6-1.16-3.24a7.43,7.43,0,0,1-.3-1c0-.13,1.31-2,1.31-2l.11-2.73-1.48-2.84s-1-1.15-.8-1.41,1.37-1.76,1.43-1.84l2.64-3.11.44-2.57.25-2.35-.7-1.37-1.8-1-1,0-.14-2.58-1.09-.8-6.2-.75-2.36-1.23-5.67-7.17-4.43-2.86-6.54-2.37-2.1-4.29-4-6.18-5.49-3.73-1.64-3.94s.73-3.61.94-4.23a55.81,55.81,0,0,0-.07-5.91l-2.41-4.31-.19-4.15,1.44-4.69,1.5-3.08-.95-2.46-3.9-1.22.78-8.88Z"/><path class="cls-1" d="M1876.13,17a33.47,33.47,0,0,1,5.14-5.54,36.08,36.08,0,0,1,15.25-7.63l.88,1.15-.79,1.46-.75,1.08.57,1.25.92,1.13.49,1.65-.35,1,.15,1.2-.16,1.21L1895,16.09l-1.68.69-1.27.91L1890.94,19l-.94,1.24-1.7,1-2.44.29-2.17-.47-.77-.43-1.51.29-1.9.5s-1.49-1-1.57-1.12-1.66-2-1.66-2Z"/><path class="cls-1" d="M1993.56,2.44a78.61,78.61,0,0,1,19.44,13,77,77,0,0,1,19.79,28.39c4.68,12,4.9,22.2,5,28.87a87.77,87.77,0,0,1-2.5,22.4,80.69,80.69,0,0,1-8.58,21,81.31,81.31,0,0,1-13,16.52,80.12,80.12,0,0,1-25.23,17,73.74,73.74,0,0,1-18.33,4.8,29.22,29.22,0,0,1,2.28-2.32,49.75,49.75,0,0,1,6.41-4.7c3.14-2.26,2.6-2.88,6.23-6.05a63.21,63.21,0,0,1,8-5.54c6.15-3.89,6.93-3.76,9.87-6.22a21.31,21.31,0,0,0,5.82-6.67,18.61,18.61,0,0,0,2-6.87l.46-1-.37-1-.75-1.42.45-1.18,0-1.53-2.54-3-5-5.84-3.31-1.14-3.1-3.47L1992,92l-4.87-6.26-1-3.78-1.86-3.55-3.6-1.51-4.25-.53-3.27,1.07-4.09.88-3-.68-1.87-1.86-3.68-3.49-3.57-3.78L1955.1,66l-2.21-1s.31-1.63.37-1.88-1.22-1.92-1.18-2.07.58-2.11.58-2.11l2.8-2,3.38.12,6.63,1.5,3.66.56,2.19-1,2.52-1a2.49,2.49,0,0,1,.92,1.37c.17.81-.28,1.25-.53,2.33a5.45,5.45,0,0,0,.15,3.12c.13.31.81,2,2.31,2.27a3.26,3.26,0,0,0,2.51-1,4.74,4.74,0,0,0,1.4-2.19c.53-1.72-.28-2.36-.19-4.35a8.19,8.19,0,0,1,1.63-4.41c1.06-1.44,1.67-1.2,3.55-3a46.3,46.3,0,0,0,3.18-4c2.83-3.68,3.06-4.11,3.29-4.68.74-1.8.43-2.4,1.26-3.22,1.3-1.27,2.64-.4,3.83-1.64,1-1.08.31-2,1.58-3.68.83-1.07,1.39-1,1.81-1.88a4.47,4.47,0,0,0-.19-3.39c-.7-1.73-1.57-1.6-3.45-4.08-1.27-1.66-1.33-2.31-2.19-2.56-.68-.2-.92.11-3.32.79s-2.55.51-3.22,1c-.83.66-.66,1.08-1.74,2.05a6.47,6.47,0,0,1-2.11,1.33,5.17,5.17,0,0,1-3.56.21,5.31,5.31,0,0,1-2.94-3c-.61-1.38-.09-1.61-.69-4.25-.44-1.94-.8-2.17-.75-3.31a6.44,6.44,0,0,1,1.09-3.15,9.56,9.56,0,0,1,3-3c1.9-1.26,2.86-1.15,4.94-2.08a17.18,17.18,0,0,0,4.77-3.18Z"/></g><g id="_8" data-name="8"><path class="cls-1" d="M2120.89,221.09l1.61,10.29c3.47,5.73,9.06,13.71,10.71,20.27,4,1.63,13.21,7.43,16.92,9.85,2.6,1.67,8.82,5.85,10.15,8.73,24.36,6.56,54.63,15.88,78.14,25.88a13.9,13.9,0,0,0,5.54,1.13l5.81,0a14.81,14.81,0,0,0,4.62-.76l8.53-2.84c10-3.79,22.49-9.47,32-14.11.94-.46,6.28-2.62,7.3-2.85,2.56-.6,6.1-1.22,9.11-1.93,1.2-.28,3.18-.63,4.4-.79l4.67-.59a28.72,28.72,0,0,1,7.69.28c6.69,1.35,10.47,2.73,18,4.79,6.61,1.81,32.58,1.32,39.76,1.4l-1.13-41.66c-16.37,3.54-36.82,7.22-53.58,6.19-4.57-2.36-13.87-6.87-18.61-8.73l-7.89-2.25-15.51-.28-13.54,4.22c-16.08,5.36-35.4,14.32-52.73,13.52-12-2.93-27.5-5.13-39.76-2.82-2.87-1.34-8.6-3.51-11.84-3.1-5.42-7.88-11.51-6.87-19.74-9.29-5-5.81-14.39-11.4-21.26-16.34a14.83,14.83,0,0,0-7.15-2.73h0l-.43.18a3.14,3.14,0,0,0-2,3.19C2120.76,220.25,2120.82,220.63,2120.89,221.09Z"/><path class="cls-1" d="M2138,81.47a66.1,66.1,0,0,0-14.12,17.09c-6.06,10.57-7.56,20-8.49,26.31a77.67,77.67,0,0,0,1,31.06,73.9,73.9,0,0,0,13.11,27.6,71.39,71.39,0,0,0,27.74,21.22,78.25,78.25,0,0,0,23.9,6.46,80.63,80.63,0,0,0,35.94-4.45l.55-1.62-1.56-1.38-1.22-.47.53-.88v-1.13l-.57-1.12-1.05-.46-1.39-1.35-1-2,.65-2.17,1.41-2.56-.49-2.09-1-1.4-.11-1.51s.95-1.43,1-1.47,1.38-2.77,1.38-2.77l-.41-2.24-1.42-1.87-1.68-2.56-2.8-2.08a14.73,14.73,0,0,1-1.45-.7c0-.08.3-1.89.29-2s-.92-1.1-.92-1.1l-1.91-1.2-4-3.47-1.65-2.68a6.22,6.22,0,0,1-.46-.84c0-.13.79-2.08.79-2.08l-.42-2.47-1.87-2.26s-1.1-.85-1-1.11.9-1.85.93-1.92l1.78-3.3-.09-2.39-.23-2.15-.89-1.1-1.8-.53-.93.18-.62-2.3-1.12-.5-5.71.51-2.35-.66-6.45-5.35-4.51-1.72-6.32-.88-2.69-3.45-4.8-4.77-5.63-2.3-2.22-3.22s0-3.38,0-4a51.22,51.22,0,0,0-1.18-5.28l-3-3.41-1-3.69.41-4.47.75-3-1.32-2-3.73-.36-1-8.1Z"/><path class="cls-1" d="M2170.55,20.25a30.54,30.54,0,0,1,4.71-5.08,33.19,33.19,0,0,1,14-7l.8,1.05-.72,1.35-.69,1,.53,1.15.84,1,.45,1.51-.33.9.14,1.1-.14,1.11-2.31,1.09-1.54.63-1.16.84-1,1.2-.86,1.14-1.56.94-2.23.28-2-.44-.71-.39-1.38.26-1.75.46s-1.36-.95-1.44-1-1.52-1.81-1.52-1.81Z"/><path class="cls-1" d="M2309.7,5a66.35,66.35,0,0,1,15.16,12.52A64.83,64.83,0,0,1,2339,42.9a65.58,65.58,0,0,1,1.73,24.58,74,74,0,0,1-4,18.52,68,68,0,0,1-8.95,16.87,68.64,68.64,0,0,1-12.27,12.72,67.54,67.54,0,0,1-22.54,12,61.64,61.64,0,0,1-15.74,2.46c.47-.43,1.18-1.06,2.1-1.75a42.29,42.29,0,0,1,5.76-3.38c2.82-1.63,2.42-2.19,5.73-4.53a51.62,51.62,0,0,1,7.13-4c5.47-2.74,6.11-2.57,8.78-4.38a17.78,17.78,0,0,0,5.43-5.08,15.73,15.73,0,0,0,2.28-5.58l.46-.76-.23-.84-.5-1.25.48-.94.15-1.28L2313,93.61l-3.73-5.32-2.67-1.23-2.3-3.17-3.49-4.17-3.54-5.65-.48-3.24-1.26-3.13-2.88-1.56-3.51-.81-2.83.62-3.49.39-2.49-.83-1.41-1.71-2.78-3.23-2.67-3.47-1.28-2.22-1.77-1.05.47-1.54c.07-.21-.85-1.71-.81-1.84s.66-1.71.66-1.71l2.52-1.45,2.81.39,5.43,1.81,3,.78,1.92-.65,2.19-.64a2.08,2.08,0,0,1,.65,1.22c.08.69-.33,1-.63,1.91a4.46,4.46,0,0,0-.14,2.62c.07.27.5,1.77,1.74,2.1a2.78,2.78,0,0,0,2.18-.61,3.87,3.87,0,0,0,1.35-1.71c.59-1.39,0-2,.21-3.65a7,7,0,0,1,1.74-3.56c1-1.11,1.5-.86,3.22-2.18.45-.35,1.31-1.26,3-3,2.68-2.84,2.91-3.18,3.15-3.63.77-1.45.55-2,1.32-2.59,1.2-1,2.24-.11,3.35-1.05s.42-1.68,1.63-2.94c.79-.83,1.24-.69,1.67-1.42a3.71,3.71,0,0,0,.12-2.86c-.43-1.51-1.17-1.47-2.53-3.7-.93-1.5-.91-2-1.62-2.33-.55-.22-.78,0-2.84.38s-2.18.21-2.78.59c-.75.48-.64.85-1.63,1.57a5.58,5.58,0,0,1-1.88.94,4.37,4.37,0,0,1-3-.13,4.49,4.49,0,0,1-2.21-2.76c-.39-1.21.06-1.35-.22-3.62-.2-1.65-.48-1.87-.34-2.82a5.41,5.41,0,0,1,1.17-2.55,8.25,8.25,0,0,1,2.78-2.25c1.7-.89,2.49-.72,4.31-1.31a14.83,14.83,0,0,0,4.25-2.26Z"/></g><g id="_9" data-name="9"><path class="cls-1" d="M2420.89,221.09l1.61,10.29c3.47,5.73,9.06,13.71,10.71,20.27,4,1.63,13.21,7.43,16.92,9.85,2.6,1.67,8.82,5.85,10.15,8.73,24.36,6.56,54.63,15.88,78.14,25.88a13.9,13.9,0,0,0,5.54,1.13l5.81,0a14.81,14.81,0,0,0,4.62-.76l8.53-2.84c10-3.79,22.49-9.47,32-14.11.94-.46,6.28-2.62,7.3-2.85,2.56-.6,6.1-1.22,9.11-1.93,1.2-.28,3.18-.63,4.4-.79l4.67-.59a28.72,28.72,0,0,1,7.69.28c6.69,1.35,10.47,2.73,18,4.79,6.61,1.81,32.58,1.32,39.76,1.4l-1.13-41.66c-16.37,3.54-36.82,7.22-53.58,6.19-4.57-2.36-13.87-6.87-18.61-8.73l-7.89-2.25-15.51-.28-13.54,4.22c-16.08,5.36-35.4,14.32-52.73,13.52-12-2.93-27.5-5.13-39.76-2.82-2.87-1.34-8.6-3.51-11.84-3.1-5.42-7.88-11.51-6.87-19.74-9.29-5-5.81-14.39-11.4-21.26-16.34a14.83,14.83,0,0,0-7.15-2.73h0l-.43.18a3.14,3.14,0,0,0-2,3.19C2420.76,220.25,2420.82,220.63,2420.89,221.09Z"/><path class="cls-1" d="M2437.37,101.81A60.36,60.36,0,0,0,2426,118.42c-4.61,10-5.19,18.72-5.52,24.48a70.68,70.68,0,0,0,3.47,28,67.18,67.18,0,0,0,14.12,23.87,65,65,0,0,0,26.83,16.92,71.44,71.44,0,0,0,22.14,3.87,73,73,0,0,0,32.12-7l.37-1.51L2518,206l-1.14-.32.41-.85-.1-1-.61-1-1-.34-1.37-1.1-1.08-1.72.41-2,1.07-2.43-.62-1.85-1-1.19-.23-1.35s.75-1.37.81-1.41,1-2.62,1-2.62l-.56-2-1.43-1.56-1.74-2.18-2.7-1.65a14.61,14.61,0,0,1-1.37-.52c0-.07.12-1.73.1-1.79s-.91-.92-.91-.92l-1.83-.93-3.88-2.81-1.72-2.29a8,8,0,0,1-.49-.72c0-.11.55-1.94.55-1.94l-.58-2.2-1.88-1.89s-1.06-.68-1-.93.66-1.74.68-1.81,1.34-3.12,1.34-3.12l-.28-2.16-.38-1.92-.9-.93-1.67-.33-.83.24-.74-2-1.06-.37-5.12.93-2.18-.4-6.27-4.3-4.22-1.19-5.78-.28L2465,141.9l-4.73-3.92-5.28-1.62-2.27-2.73s-.31-3-.3-3.6a45.13,45.13,0,0,0-1.5-4.68l-3-2.83-1.17-3.26v-4.08l.43-2.82-1.35-1.72-3.41,0-1.56-7.24Z"/><path class="cls-1" d="M2463.4,19.16a21.39,21.39,0,0,1,3.2-3.44,22.52,22.52,0,0,1,9.49-4.75l.55.72-.5.91-.46.67.35.78.57.7.31,1-.22.61.09.74-.09.76-1.57.74-1,.42-.79.57-.68.82-.58.77-1.06.64-1.51.18-1.35-.3-.48-.26-.94.18-1.18.31s-.93-.64-1-.7l-1-1.22Z"/><path class="cls-1" d="M2614.15,5.34A59.51,59.51,0,0,1,2626.5,18.1a58.61,58.61,0,0,1,10.14,24.25,59.2,59.2,0,0,1-.93,22.23,67,67,0,0,1-5.44,16.24,59.78,59.78,0,0,1-22,24.42,60.8,60.8,0,0,1-21.44,8.54,55.69,55.69,0,0,1-14.38.63,23.74,23.74,0,0,1,2.06-1.36,39.47,39.47,0,0,1,5.51-2.46c2.7-1.17,2.39-1.72,5.6-3.49a46.47,46.47,0,0,1,6.8-2.83c5.19-1.91,5.74-1.69,8.32-3a16.2,16.2,0,0,0,5.39-4,14.22,14.22,0,0,0,2.61-4.78l.49-.64-.12-.77-.32-1.17.52-.8.27-1.14-1.4-2.66-2.81-5.15-2.27-1.38-1.75-3.07-2.71-4.1L2596,66.12l-.11-3-.81-2.93-2.43-1.7-3.07-1.07-2.6.26h-3.18l-2.14-1-1.09-1.68-2.18-3.18-2-3.38-.93-2.12-1.48-1.12s.49-1.16.58-1.34-.6-1.62-.55-1.73.77-1.47.77-1.47l2.4-1.05,2.49.63,4.69,2.17,2.62,1,1.79-.39,2-.36a2,2,0,0,1,.46,1.17c0,.62-.41.88-.77,1.64a4.13,4.13,0,0,0-.39,2.34c.05.25.28,1.64,1.35,2.06a2.48,2.48,0,0,0,2-.32,3.65,3.65,0,0,0,1.39-1.4c.67-1.19.17-1.8.56-3.26a6.12,6.12,0,0,1,1.92-3c1-.9,1.43-.63,3.11-1.64.44-.27,1.3-1,3-2.43,2.7-2.28,2.94-2.57,3.2-2.95.84-1.22.7-1.72,1.45-2.19,1.17-.74,2,.12,3.11-.6s.55-1.47,1.76-2.49c.79-.66,1.18-.48,1.64-1.1A3.37,3.37,0,0,0,2615,26c-.24-1.4-.9-1.44-1.9-3.58-.68-1.44-.62-1.92-1.22-2.25s-.7-.07-2.59.05-2,0-2.55.25c-.73.35-.67.7-1.62,1.25a5.13,5.13,0,0,1-1.78.65,4,4,0,0,1-2.68-.42,4,4,0,0,1-1.7-2.7c-.24-1.12.18-1.21.16-3.27,0-1.5-.24-1.73,0-2.57a4.9,4.9,0,0,1,1.31-2.17,7.38,7.38,0,0,1,2.72-1.74c1.61-.62,2.31-.39,4-.74a13.48,13.48,0,0,0,4-1.6Z"/></g><g id="_10" data-name="10"><path class="cls-1" d="M2720.89,221.09l1.61,10.29c3.47,5.73,9.06,13.71,10.71,20.27,4,1.63,13.21,7.43,16.92,9.85,2.6,1.67,8.82,5.85,10.15,8.73,24.36,6.56,54.63,15.88,78.14,25.88a13.9,13.9,0,0,0,5.54,1.13l5.81,0a14.81,14.81,0,0,0,4.62-.76l8.53-2.84c10-3.79,22.49-9.47,32-14.11.94-.46,6.28-2.62,7.3-2.85,2.56-.6,6.1-1.22,9.11-1.93,1.2-.28,3.18-.63,4.4-.79l4.67-.59a28.72,28.72,0,0,1,7.69.28c6.69,1.35,10.47,2.73,18,4.79,6.61,1.81,32.58,1.32,39.76,1.4l-1.13-41.66c-16.37,3.54-36.82,7.22-53.58,6.19-4.57-2.36-13.87-6.87-18.61-8.73l-7.89-2.25-15.51-.28-13.54,4.22c-16.08,5.36-35.4,14.32-52.73,13.52-12-2.93-27.5-5.13-39.76-2.82-2.87-1.34-8.6-3.51-11.84-3.1-5.42-7.88-11.51-6.87-19.74-9.29-5-5.81-14.39-11.4-21.26-16.34a14.83,14.83,0,0,0-7.15-2.73h0l-.43.18a3.14,3.14,0,0,0-2,3.19C2720.76,220.25,2720.82,220.63,2720.89,221.09Z"/><path class="cls-1" d="M2751.46,110.4A56.83,56.83,0,0,0,2739,124.79a60.21,60.21,0,0,0-7.79,22.4,66.59,66.59,0,0,0,.27,26.66,63.42,63.42,0,0,0,10.71,23.92,61.25,61.25,0,0,0,23.38,18.74,67.32,67.32,0,0,0,20.38,6,69.26,69.26,0,0,0,30.91-3.12l.51-1.38-1.32-1.21-1-.42.48-.75v-1l-.47-1-.89-.42-1.17-1.19-.83-1.73.6-1.85,1.26-2.16-.38-1.8-.82-1.23-.06-1.29s.84-1.21.9-1.24,1.24-2.35,1.24-2.35l-.31-1.94-1.18-1.62-1.4-2.23-2.36-1.84a13,13,0,0,1-1.23-.63c0-.07.3-1.61.29-1.67s-.77-1-.77-1l-1.61-1.07-3.35-3.05-1.36-2.34a6,6,0,0,1-.38-.73c0-.1.72-1.76.72-1.76l-.32-2.13-1.55-2s-.93-.75-.83-1,.8-1.56.84-1.63,1.58-2.79,1.58-2.79l0-2.05-.15-1.85-.75-1-1.53-.49-.8.13-.48-2-1-.45-4.9.32-2-.6-5.43-4.71-3.84-1.57-5.4-.88-2.24-3-4-4.18-4.79-2.08-1.84-2.81s0-2.9.1-3.41a42.32,42.32,0,0,0-.91-4.55l-2.49-3-.75-3.19.43-3.83.7-2.6-1.09-1.76-3.19-.38-.7-7Z"/><path class="cls-1" d="M2761,17.53a16,16,0,0,1,2.31-2.49,16.35,16.35,0,0,1,6.87-3.43l.4.51-.36.66-.34.49.26.56.41.51.22.74-.15.44.06.54-.07.55-1.13.54-.75.3-.58.41-.48.59-.43.56-.76.46-1.1.14-1-.22-.35-.19-.68.13-.85.23s-.68-.47-.71-.51-.75-.89-.75-.89Z"/><path class="cls-1" d="M2918.52,6.2a51.52,51.52,0,0,1,8.84,12.32,49.9,49.9,0,0,1,5.54,21.76A50.76,50.76,0,0,1,2929.35,59a57.62,57.62,0,0,1-6.63,13,52.72,52.72,0,0,1-10,10.82,53.08,53.08,0,0,1-11.66,7.07,51.83,51.83,0,0,1-19.19,4.54,47.16,47.16,0,0,1-12.23-1.27,20.37,20.37,0,0,1,1.92-.88,32.1,32.1,0,0,1,5-1.39c2.43-.66,2.23-1.16,5.17-2.25a38.57,38.57,0,0,1,6.09-1.55c4.62-1,5.07-.71,7.42-1.53a13.83,13.83,0,0,0,5.05-2.72,12.08,12.08,0,0,0,2.8-3.72l.49-.47V78l-.13-1,.54-.61.37-.93-.85-2.43-1.73-4.69L2900,66.82,2898.9,64l-1.78-3.8-1.53-4.91.28-2.51-.32-2.58-1.84-1.74-2.46-1.29-2.23-.1-2.68-.39-1.69-1.11-.72-1.56-1.44-3-1.3-3.11-.52-1.91-1.11-1.13.65-1.06c.1-.14-.3-1.44-.24-1.53s.83-1.14.83-1.14l2.16-.59,2,.84,3.69,2.43,2.09,1.17,1.56-.1,1.76-.05a1.58,1.58,0,0,1,.24,1c-.08.53-.45.7-.85,1.3a3.47,3.47,0,0,0-.62,1.92,2.28,2.28,0,0,0,.89,1.91,2.1,2.1,0,0,0,1.74,0,3.08,3.08,0,0,0,1.35-1c.71-.92.37-1.5.88-2.68a5.22,5.22,0,0,1,2-2.31c1-.63,1.28-.35,2.83-1a30.66,30.66,0,0,0,2.83-1.68c2.56-1.59,2.8-1.8,3.07-2.09.86-.93.8-1.36,1.5-1.67,1.08-.47,1.69.36,2.7-.12s.65-1.17,1.8-1.88c.75-.46,1.05-.26,1.52-.72a2.88,2.88,0,0,0,.66-2.11c0-1.21-.58-1.33-1.17-3.26-.39-1.3-.27-1.7-.74-2.06s-.59-.14-2.2-.27-1.66-.27-2.18-.11-.65.5-1.53.85a4.13,4.13,0,0,1-1.58.33,3.37,3.37,0,0,1-2.21-.69,3.47,3.47,0,0,1-1.11-2.49c0-1,.31-1,.55-2.74.18-1.28,0-1.5.3-2.18a4.3,4.3,0,0,1,1.38-1.67,6.36,6.36,0,0,1,2.52-1.13,17.42,17.42,0,0,1,3.47-.13,11.41,11.41,0,0,0,3.62-.84Z"/></g><g id="_11" data-name="11"><path class="cls-1" d="M3020.89,221.09l1.61,10.29c3.47,5.73,9.06,13.71,10.71,20.27,4,1.63,13.21,7.43,16.92,9.85,2.6,1.67,8.82,5.85,10.15,8.73,24.36,6.56,54.63,15.88,78.14,25.88a13.9,13.9,0,0,0,5.54,1.13l5.81,0a14.81,14.81,0,0,0,4.62-.76l8.53-2.84c10-3.79,22.49-9.47,32-14.11.94-.46,6.28-2.62,7.3-2.85,2.56-.6,6.1-1.22,9.11-1.93,1.2-.28,3.18-.63,4.4-.79l4.67-.59a28.72,28.72,0,0,1,7.69.28c6.69,1.35,10.47,2.73,18,4.79,6.61,1.81,32.58,1.32,39.76,1.4l-1.13-41.66c-16.37,3.54-36.82,7.22-53.58,6.19-4.57-2.36-13.87-6.87-18.61-8.73l-7.89-2.25-15.51-.28-13.54,4.22c-16.08,5.36-35.4,14.32-52.73,13.52-12-2.93-27.5-5.13-39.76-2.82-2.87-1.34-8.6-3.51-11.84-3.1-5.42-7.88-11.51-6.87-19.74-9.29-5-5.81-14.39-11.4-21.26-16.34a14.83,14.83,0,0,0-7.15-2.73h0l-.43.18a3.14,3.14,0,0,0-2,3.19C3020.76,220.25,3020.82,220.63,3020.89,221.09Z"/><path class="cls-1" d="M3062.7,120.07A53,53,0,0,0,3050,132.54a56.42,56.42,0,0,0-9,20.31,62.22,62.22,0,0,0-1.78,24.89,59.41,59.41,0,0,0,8.17,23.13,57.31,57.31,0,0,0,20.38,19.26,63,63,0,0,0,18.55,7.16,64.89,64.89,0,0,0,29.07-.56l.58-1.25-1.13-1.23-.94-.48.51-.66.08-.9-.36-.94-.8-.46-1-1.2-.65-1.67.7-1.69,1.34-1.92-.21-1.71-.67-1.2,0-1.21s.89-1.07.94-1.09,1.34-2.1,1.34-2.1l-.15-1.83-1-1.6-1.14-2.19-2.06-1.9a12.18,12.18,0,0,1-1.1-.68c0-.06.4-1.48.4-1.54s-.64-.95-.64-.95l-1.43-1.12-2.88-3.1-1.1-2.28a5.62,5.62,0,0,1-.3-.71c0-.1.8-1.59.8-1.59l-.13-2-1.3-2s-.81-.78-.7-1l.91-1.45,1.69-2.48.13-1.92V175l-.62-1-1.39-.58-.76.07-.3-1.88-.86-.5-4.6-.07-1.82-.72-4.71-4.81-3.46-1.75-5-1.23-1.86-3-3.44-4.21-4.3-2.31-1.51-2.75s.26-2.71.36-3.18a40.66,40.66,0,0,0-.5-4.31l-2.1-3-.46-3,.69-3.54.86-2.37-.88-1.73-3-.6-.11-6.55Z"/><path class="cls-1" d="M3060.74,17a10.64,10.64,0,0,1,1.63-1.75,11.42,11.42,0,0,1,4.82-2.41l.28.36-.25.47-.24.34.18.39.29.36.15.52-.11.31.05.38-.05.38-.79.38-.53.22-.41.28-.34.42-.29.39-.54.33-.77.09-.69-.15-.24-.13-.48.08-.6.16-.5-.35-.52-.62Z"/><path class="cls-1" d="M3218.61,16.28a46.52,46.52,0,0,1,6.13,12.29,45.37,45.37,0,0,1,1.82,20.26A45.77,45.77,0,0,1,3220.69,65a51.79,51.79,0,0,1-7.8,10.7,46,46,0,0,1-21.95,12.88,47,47,0,0,1-17.81,1.3,43,43,0,0,1-10.76-2.9c.43-.14,1.06-.33,1.84-.51a30.49,30.49,0,0,1,4.64-.53c2.27-.24,2.17-.71,5-1.27a36.71,36.71,0,0,1,5.67-.51c4.27-.19,4.63.1,6.85-.3a12.38,12.38,0,0,0,4.91-1.7,11.09,11.09,0,0,0,3-2.92l.51-.36.1-.59,0-.94.57-.47.46-.78-.4-2.29-.88-4.45-1.35-1.55-.57-2.67-1-3.66-.67-4.61.61-2.21.09-2.35-1.4-1.82-2-1.51-2-.41-2.35-.74-1.35-1.23-.41-1.5-.86-2.85-.72-3-.19-1.78-.83-1.17.74-.86c.1-.11-.06-1.33,0-1.4s.91-.9.91-.9l2-.22,1.69,1,3,2.7,1.7,1.35,1.41.13,1.58.21a1.47,1.47,0,0,1,.07,1c-.15.46-.51.55-.95,1a3.21,3.21,0,0,0-.83,1.64,2.05,2.05,0,0,0,.51,1.83,1.91,1.91,0,0,0,1.57.23,2.84,2.84,0,0,0,1.35-.7c.77-.73.54-1.29,1.17-2.28a4.88,4.88,0,0,1,2.12-1.78c1-.42,1.2-.12,2.68-.48a27.79,27.79,0,0,0,2.77-1.09,14.7,14.7,0,0,0,3-1.43c.9-.71.91-1.11,1.58-1.28,1-.27,1.46.57,2.43.28s.75-1,1.88-1.42c.74-.3,1-.08,1.47-.43a2.63,2.63,0,0,0,.89-1.79c.15-1.08-.33-1.27-.57-3.08-.17-1.22,0-1.56-.37-1.95s-.51-.21-1.93-.56-1.45-.48-1.94-.41-.65.36-1.48.54a4,4,0,0,1-1.47.06,3,3,0,0,1-1.88-.93,3.09,3.09,0,0,1-.62-2.39c.09-.88.42-.85.88-2.37.34-1.11.23-1.34.59-1.9a3.86,3.86,0,0,1,1.47-1.3,5.76,5.76,0,0,1,2.41-.64,14.39,14.39,0,0,1,3.12.38,10,10,0,0,0,3.36-.24Z"/></g><g id="_12" data-name="12"><path class="cls-1" d="M3320.89,221.09l1.61,10.29c3.47,5.73,9.06,13.71,10.71,20.27,4,1.63,13.21,7.43,16.92,9.85,2.6,1.67,8.82,5.85,10.15,8.73,24.36,6.56,54.63,15.88,78.14,25.88a13.9,13.9,0,0,0,5.54,1.13l5.81,0a14.81,14.81,0,0,0,4.62-.76l8.53-2.84c10-3.79,22.49-9.47,32-14.11.94-.46,6.28-2.62,7.3-2.85,2.56-.6,6.1-1.22,9.11-1.93,1.2-.28,3.18-.63,4.4-.79l4.67-.59a28.72,28.72,0,0,1,7.69.28c6.69,1.35,10.47,2.73,18,4.79,6.61,1.81,32.58,1.32,39.76,1.4l-1.13-41.66c-16.37,3.54-36.82,7.22-53.58,6.19-4.57-2.36-13.87-6.87-18.61-8.73l-7.89-2.25-15.51-.28-13.54,4.22c-16.08,5.36-35.4,14.32-52.73,13.52-12-2.93-27.5-5.13-39.76-2.82-2.87-1.34-8.6-3.51-11.84-3.1-5.42-7.88-11.51-6.87-19.74-9.29-5-5.81-14.39-11.4-21.26-16.34a14.83,14.83,0,0,0-7.15-2.73h0l-.43.18a3.14,3.14,0,0,0-2,3.19C3320.76,220.25,3320.82,220.63,3320.89,221.09Z"/><path class="cls-1" d="M3373,127.46a49.25,49.25,0,0,0-13,10,52.37,52.37,0,0,0-10.48,17.6,57.93,57.93,0,0,0-4.39,22.6,55,55,0,0,0,4.92,22.1,53,53,0,0,0,16.53,19.91,58.34,58.34,0,0,0,16.2,8.61,59.73,59.73,0,0,0,26.69,2.71l.67-1.08-.91-1.25-.8-.54.53-.55.18-.82-.23-.9-.68-.51-.78-1.21-.41-1.6.83-1.47,1.44-1.61v-1.59l-.48-1.18.16-1.1s.93-.88,1-.89,1.45-1.78,1.45-1.78l.07-1.69-.71-1.58-.8-2.12-1.68-2s-.93-.7-.93-.75.53-1.31.54-1.36-.48-1-.48-1l-1.19-1.18-2.3-3.16-.75-2.21a5.06,5.06,0,0,1-.19-.69c0-.09.91-1.37.91-1.37l.1-1.85-1-1.94s-.66-.8-.53-1,.95-1.18,1-1.23l1.82-2.09.33-1.74.19-1.59-.46-.94-1.21-.68-.7,0-.07-1.76-.73-.55-4.2-.57-1.59-.86-3.78-4.93-3-2-4.41-1.68-1.38-2.93-2.68-4.24-3.68-2.59-1.07-2.69s.53-2.45.67-2.87a36,36,0,0,0,0-4l-1.59-2.95-.09-2.83,1-3.16,1-2.08-.62-1.68-2.63-.88.62-6Z"/><path class="cls-1" d="M3360.51,16.62a8.72,8.72,0,0,1,1.26-1.22,10.07,10.07,0,0,1,3.64-1.8l.19.23-.2.31-.19.24.12.25.19.23.1.33-.1.21,0,.25-.05.26-.6.28-.4.16-.31.21-.26.29-.24.27-.41.24-.57.09-.49-.07-.17-.08-.36.08-.45.13-.35-.21-.35-.39Z"/><path class="cls-1" d="M3521.76,18.05a39.61,39.61,0,0,1,3.68,11.25,39.16,39.16,0,0,1-1,17.51,39.64,39.64,0,0,1-7,13.07,44.91,44.91,0,0,1-8,8.15,39.83,39.83,0,0,1-20.34,8.22,40.57,40.57,0,0,1-15.36-1.13,37,37,0,0,1-8.81-3.82c.38-.06.94-.15,1.63-.21a24.83,24.83,0,0,1,4,.14c2,.08,1.93-.34,4.37-.47a32,32,0,0,1,4.91.28c3.67.37,3.94.67,5.88.61a10.66,10.66,0,0,0,4.4-.84,9.21,9.21,0,0,0,3-2.11l.48-.24.16-.5.14-.79.55-.33.49-.6-.06-2-.18-3.91-1-1.49-.16-2.35-.43-3.25,0-4,.8-1.8.37-2-1-1.72-1.52-1.54-1.64-.6-1.91-.93-1-1.22-.16-1.33-.38-2.54-.24-2.62.06-1.55-.56-1.1.74-.64c.1-.08.11-1.14.18-1.19l.88-.66,1.75.07,1.31,1.11,2.18,2.67,1.28,1.36,1.19.29,1.32.38a1.31,1.31,0,0,1-.06.84c-.19.37-.5.41-.94.76a2.71,2.71,0,0,0-.91,1.29,1.77,1.77,0,0,0,.2,1.63,1.67,1.67,0,0,0,1.31.39,2.36,2.36,0,0,0,1.24-.43c.75-.52.63-1,1.28-1.79a4.14,4.14,0,0,1,2-1.25c.87-.24,1,0,2.34-.08.34,0,1.07-.22,2.51-.58a12.41,12.41,0,0,0,2.77-.84c.86-.49.92-.83,1.51-.89.92-.1,1.18.66,2,.54s.76-.72,1.78-1c.67-.17.85,0,1.31-.19a2.23,2.23,0,0,0,1-1.41c.27-.91-.12-1.12-.1-2.7,0-1.06.2-1.33-.07-1.71s-.4-.24-1.57-.72-1.18-.59-1.6-.59-.6.22-1.34.27a3.35,3.35,0,0,1-1.26-.13,2.67,2.67,0,0,1-1.48-1,2.73,2.73,0,0,1-.24-2.12c.19-.74.47-.67,1.06-1.91.43-.91.36-1.11.73-1.55a3.38,3.38,0,0,1,1.42-.92,5,5,0,0,1,2.14-.25,13.59,13.59,0,0,1,2.62.72,8.44,8.44,0,0,0,2.89.22Z"/></g><g id="_13" data-name="13"><path class="cls-1" d="M3620.89,221.09l1.61,10.29c3.47,5.73,9.06,13.71,10.71,20.27,4,1.63,13.21,7.43,16.92,9.85,2.6,1.67,8.82,5.85,10.15,8.73,24.36,6.56,54.63,15.88,78.14,25.88a13.9,13.9,0,0,0,5.54,1.13l5.81,0a14.81,14.81,0,0,0,4.62-.76l8.53-2.84c10-3.79,22.49-9.47,32-14.11.94-.46,6.28-2.62,7.3-2.85,2.56-.6,6.1-1.22,9.11-1.93,1.2-.28,3.18-.63,4.4-.79l4.67-.59a28.72,28.72,0,0,1,7.69.28c6.69,1.35,10.47,2.73,18,4.79,6.61,1.81,32.58,1.32,39.76,1.4l-1.13-41.66c-16.37,3.54-36.82,7.22-53.58,6.19-4.57-2.36-13.87-6.87-18.61-8.73l-7.89-2.25-15.51-.28-13.54,4.22c-16.08,5.36-35.4,14.32-52.73,13.52-12-2.93-27.5-5.13-39.76-2.82-2.87-1.34-8.6-3.51-11.84-3.1-5.42-7.88-11.51-6.87-19.74-9.29-5-5.81-14.39-11.4-21.26-16.34a14.83,14.83,0,0,0-7.15-2.73h0l-.43.18a3.14,3.14,0,0,0-2,3.19C3620.76,220.25,3620.82,220.63,3620.89,221.09Z"/><path class="cls-1" d="M3681.83,135.05a45.48,45.48,0,0,0-13.56,6.68,48,48,0,0,0-12.64,14,52.79,52.79,0,0,0-8.06,19.6,50.37,50.37,0,0,0,.43,20.84,48.8,48.8,0,0,0,11.31,21,53.78,53.78,0,0,0,13.06,10.7,55,55,0,0,0,23.6,7.29l.8-.86-.59-1.29-.63-.63.58-.4.31-.7,0-.86-.52-.59-.49-1.23-.08-1.52,1-1.17,1.59-1.19.28-1.44-.22-1.15.35-1s1-.62,1.05-.63,1.63-1.33,1.63-1.33l.37-1.52-.35-1.55-.34-2.06-1.15-2.08a10.29,10.29,0,0,1-.71-.85s.71-1.08.73-1.13-.26-.94-.26-.94l-.86-1.28-1.5-3.27-.28-2.14a5.39,5.39,0,0,1,0-.65c0-.08,1.07-1.07,1.07-1.07l.43-1.65-.52-1.93s-.45-.84-.31-1,1.07-.9,1.12-.93l2-1.56.62-1.51.46-1.4-.25-.93-1-.84-.63-.15.26-1.6-.56-.62-3.69-1.29-1.28-1.06-2.51-5.13-2.33-2.34-3.68-2.31-.71-2.9-1.65-4.31-2.86-3-.48-2.62s.93-2.11,1.14-2.47a35.83,35.83,0,0,0,.74-3.61l-.9-3,.43-2.56,1.5-2.67,1.32-1.69-.25-1.62-2.22-1.27,1.65-5.32Z"/><path class="cls-1" d="M3658.36,16.38a6.93,6.93,0,0,1,.86-.83,6.81,6.81,0,0,1,2.46-1.21l.13.15-.14.22-.13.16.08.17.13.15.07.23-.07.14v.17l0,.17-.41.19-.26.11-.21.14-.18.2-.16.18-.28.16-.38.06-.34,0-.12-.06-.23.06-.31.09-.23-.15s-.25-.26-.25-.26Z"/><path class="cls-1" d="M3823.52,19.23a35.08,35.08,0,0,1,2.08,10.08,33.87,33.87,0,0,1-2.57,15,34.14,34.14,0,0,1-7.36,10.6A38.54,38.54,0,0,1,3808,61.2a34.6,34.6,0,0,1-18.38,5.12,35.34,35.34,0,0,1-13.16-2.47,32.17,32.17,0,0,1-7.23-4.17c.33,0,.83,0,1.43,0a23.21,23.21,0,0,1,3.46.51c1.69.26,1.71-.1,3.83,0a26.5,26.5,0,0,1,4.21.72c3.13.68,3.34,1,5,1.1a9.39,9.39,0,0,0,3.89-.3,7.94,7.94,0,0,0,2.76-1.53l.44-.16.18-.41.21-.68.5-.23.48-.47.15-1.74.22-3.39-.68-1.38.09-2-.05-2.85.41-3.47.86-1.48.52-1.69-.67-1.59-1.16-1.48-1.36-.68-1.56-1-.74-1.16V33.14l-.08-2.23.05-2.29.2-1.33-.37-1,.69-.48a8.45,8.45,0,0,0,.27-1l.84-.48,1.5.23,1,1.08,1.62,2.52,1,1.31,1,.36,1.11.46a1.11,1.11,0,0,1-.14.72c-.19.3-.47.3-.88.56a2.43,2.43,0,0,0-.92,1,1.56,1.56,0,0,0,0,1.43,1.44,1.44,0,0,0,1.08.47,2.15,2.15,0,0,0,1.12-.26c.7-.37.64-.83,1.28-1.42a3.61,3.61,0,0,1,1.88-.88c.78-.12.9.14,2,.16a19.88,19.88,0,0,0,2.23-.26,10.33,10.33,0,0,0,2.48-.45c.79-.34.87-.62,1.39-.62.8,0,.95.69,1.71.67s.72-.55,1.63-.67c.59-.08.73.13,1.15,0a2,2,0,0,0,1-1.13c.31-.75,0-1,.17-2.34.12-.92.3-1.13.11-1.48s-.32-.25-1.29-.78-.95-.63-1.32-.67-.55.13-1.19.11a3.06,3.06,0,0,1-1.07-.24,2.26,2.26,0,0,1-1.18-1,2.35,2.35,0,0,1,0-1.85c.24-.62.47-.53,1.1-1.55.46-.74.42-.92.79-1.26a2.9,2.9,0,0,1,1.31-.66,4.22,4.22,0,0,1,1.87,0,11.19,11.19,0,0,1,2.2.87,7.58,7.58,0,0,0,2.47.48Z"/></g><g id="_14" data-name="14"><path class="cls-1" d="M3920.89,221.09l1.61,10.29c3.47,5.73,9.06,13.71,10.71,20.27,4,1.63,13.21,7.43,16.92,9.85,2.6,1.67,8.82,5.85,10.15,8.73,24.36,6.56,54.63,15.88,78.14,25.88a13.9,13.9,0,0,0,5.54,1.13l5.81,0a14.81,14.81,0,0,0,4.62-.76l8.53-2.84c10-3.79,22.49-9.47,32-14.11.94-.46,6.28-2.62,7.3-2.85,2.56-.6,6.1-1.22,9.11-1.93,1.2-.28,3.18-.63,4.4-.79l4.67-.59a28.72,28.72,0,0,1,7.69.28c6.69,1.35,10.47,2.73,18,4.79,6.61,1.81,32.58,1.32,39.76,1.4l-1.13-41.66c-16.37,3.54-36.82,7.22-53.58,6.19-4.57-2.36-13.87-6.87-18.61-8.73l-7.89-2.25-15.51-.28-13.54,4.22c-16.08,5.36-35.4,14.32-52.73,13.52-12-2.93-27.5-5.13-39.76-2.82-2.87-1.34-8.6-3.51-11.84-3.1-5.42-7.88-11.51-6.87-19.74-9.29-5-5.81-14.39-11.4-21.26-16.34a14.83,14.83,0,0,0-7.15-2.73h0l-.43.18a3.14,3.14,0,0,0-2,3.19C3920.76,220.25,3920.82,220.63,3920.89,221.09Z"/><path class="cls-1" d="M4000.62,170.06a31.64,31.64,0,0,0-10.56,0,33.48,33.48,0,0,0-12.25,4.85,37.14,37.14,0,0,0-11.11,9.8,35.38,35.38,0,0,0-6.17,13.19,34.11,34.11,0,0,0,.61,16.64,37.35,37.35,0,0,0,4.88,10.74,38.47,38.47,0,0,0,12.53,11.86l.77-.29,0-1-.2-.59.49-.07.41-.35.24-.55-.15-.52.08-.93.42-1,1-.42,1.36-.26.62-.81.22-.79.52-.5s.82-.08.85-.07,1.44-.33,1.44-.33l.7-.84.25-1.08.43-1.4-.08-1.66s-.2-.72-.18-.74.78-.46.81-.49.12-.67.12-.67l-.14-1.07.07-2.51.49-1.42a3.15,3.15,0,0,1,.17-.43s1-.34,1-.34l.78-.9.27-1.37s0-.67.1-.71l1-.23,1.75-.35.85-.76.73-.74.13-.66-.35-.82-.35-.29.66-.92-.16-.57-1.91-1.94-.48-1.06v-4l-.73-2.18L3991,196l.45-2,.3-3.21-.86-2.77.51-1.8s1.23-1,1.47-1.19a24.38,24.38,0,0,0,1.59-2l.34-2.13,1.07-1.47,1.77-1.21,1.34-.65.35-1.09-1-1.49,2.68-2.82Z"/><path class="cls-1" d="M3958.24,16.18a3.34,3.34,0,0,1,.5-.49,4,4,0,0,1,1.44-.71l.08.09-.08.12-.08.1.05.1.07.09,0,.13,0,.08v.1l0,.1L3960,16l-.15.07-.13.08-.1.12-.1.1-.16.1-.22,0-.2,0-.07,0-.14,0-.18.05-.13-.08-.15-.16Z"/><path class="cls-1" d="M4123.9,19.75a16.94,16.94,0,0,1-1.06,4.86,16.48,16.48,0,0,1-4.07,6.13,16.57,16.57,0,0,1-5.33,3.23,19.3,19.3,0,0,1-4.63,1.26,17.54,17.54,0,0,1-4.83-.06,17.63,17.63,0,0,1-9.61-5A15.76,15.76,0,0,1,4092,27c.16.06.38.15.64.27a10.25,10.25,0,0,1,1.43.91,17.77,17.77,0,0,0,1.68.76,12.75,12.75,0,0,1,1.72,1.14,17.26,17.26,0,0,0,2,1.47,4.51,4.51,0,0,0,1.77.63,3.94,3.94,0,0,0,1.52-.13l.23,0,.16-.15.22-.26h.27l.31-.12.4-.73.76-1.46,0-.74.45-.89.53-1.27.86-1.45.67-.48.56-.65,0-.83-.22-.88-.47-.56-.5-.74-.1-.66.23-.51.4-1,.47-1,.35-.54,0-.52.4-.07c.06,0,.29-.39.32-.4l.46-.05.62.4.24.68.22,1.43.18.76.36.36.4.42a.48.48,0,0,1-.2.29c-.14.09-.26,0-.5.08a1.09,1.09,0,0,0-.6.27.72.72,0,0,0-.27.63.67.67,0,0,0,.38.42,1,1,0,0,0,.55.11c.38,0,.44-.24.84-.38a1.73,1.73,0,0,1,1,0c.37.1.37.24.87.47a10,10,0,0,0,1,.32,4.65,4.65,0,0,0,1.18.29c.42,0,.51-.1.74,0s.28.49.62.63.43-.1.85,0,.3.19.52.21a.92.92,0,0,0,.65-.31c.29-.27.2-.43.54-1,.23-.38.35-.44.34-.63s-.1-.17-.42-.59-.3-.47-.45-.56-.27-.05-.54-.19a1.25,1.25,0,0,1-.43-.31,1,1,0,0,1,.05-1.5c.22-.23.31-.15.78-.47s.37-.33.6-.41a1.46,1.46,0,0,1,.71,0,2.06,2.06,0,0,1,.82.37,4.72,4.72,0,0,1,.8.81,3.82,3.82,0,0,0,1,.7Z"/></g><g id="_15" data-name="15"><path class="cls-1" d="M4220.89,221.09l1.61,10.29c3.47,5.73,9.06,13.71,10.71,20.27,4,1.63,13.21,7.43,16.92,9.85,2.6,1.67,8.82,5.85,10.15,8.73,24.36,6.56,54.63,15.88,78.14,25.88a13.9,13.9,0,0,0,5.54,1.13l5.81,0a14.81,14.81,0,0,0,4.62-.76l8.53-2.84c10-3.79,22.49-9.47,32-14.11.94-.46,6.28-2.62,7.3-2.85,2.56-.6,6.1-1.22,9.11-1.93,1.2-.28,3.18-.63,4.4-.79l4.67-.59a28.72,28.72,0,0,1,7.69.28c6.69,1.35,10.47,2.73,18,4.79,6.61,1.81,32.58,1.32,39.76,1.4l-1.13-41.66c-16.37,3.54-36.82,7.22-53.58,6.19-4.57-2.36-13.87-6.87-18.61-8.73l-7.89-2.25-15.51-.28-13.54,4.22c-16.08,5.36-35.4,14.32-52.73,13.52-12-2.93-27.5-5.13-39.76-2.82-2.87-1.34-8.6-3.51-11.84-3.1-5.42-7.88-11.51-6.87-19.74-9.29-5-5.81-14.39-11.4-21.26-16.34a14.83,14.83,0,0,0-7.15-2.73h0l-.43.18a3.14,3.14,0,0,0-2,3.19C4220.76,220.25,4220.82,220.63,4220.89,221.09Z"/><path class="cls-1" d="M4298.79,202.93A19.23,19.23,0,0,0,4293,200a20.51,20.51,0,0,0-8-.73,22.82,22.82,0,0,0-8.78,2.3,21.54,21.54,0,0,0-7,5.51,20.89,20.89,0,0,0-4.25,9.26,23,23,0,0,0-.3,7.23,23.56,23.56,0,0,0,3.59,9.94l.5.05.29-.53,0-.38.29.09.32-.07.28-.24.07-.33.29-.48.5-.42.66.05.82.23.56-.27.34-.37.42-.13s.47.18.49.2l.87.21.62-.26.44-.52.62-.65.41-.93a4.35,4.35,0,0,1,.11-.46l.57,0s.25-.33.25-.33l.22-.63L4279,226l.66-.64a2.09,2.09,0,0,1,.21-.19s.64.09.64.09l.68-.28.52-.68s.17-.36.25-.35l.61.14,1,.3.68-.18.6-.21.25-.32,0-.55-.11-.25.61-.33.07-.35-.51-1.59,0-.71,1.11-2.18.2-1.4-.16-1.85.81-1,1.05-1.68.29-1.75.77-.84s1-.22,1.14-.24a14.84,14.84,0,0,0,1.42-.68l.78-1.07,1-.51,1.3-.18.92,0,.49-.5-.14-1.09,2.24-.8Z"/><path class="cls-1" d="M4257.65,14.81a2.31,2.31,0,0,1,.27-.26,2.15,2.15,0,0,1,.77-.38l0,.05,0,.07,0,.05,0,.05,0,0,0,.07,0,.05v0l0,.05-.12.06-.09,0-.06,0-.06.06-.05.06-.09.05-.12,0h-.1l0,0-.07,0-.1,0-.07,0-.08-.08Z"/><path class="cls-1" d="M4424.54,22.06a13.46,13.46,0,0,1-1.85,3.44,12.3,12.3,0,0,1-9.13,5,14.91,14.91,0,0,1-3.77-.05,14,14,0,0,1-3.64-1.09,13.62,13.62,0,0,1-2.95-1.9,13.35,13.35,0,0,1-3.23-3.92,12,12,0,0,1-1.09-3c.1.08.25.19.42.34a8.73,8.73,0,0,1,.88,1c.43.48.52.38,1.11.94a10.45,10.45,0,0,1,1.05,1.23,16.11,16.11,0,0,0,1.19,1.54,3.58,3.58,0,0,0,1.21.86,2.94,2.94,0,0,0,1.17.23l.17.06.15-.08.23-.14.2.05.26,0,.46-.47.89-.93.14-.57.53-.57.68-.84,1-.91.61-.22.56-.37.19-.62,0-.72-.24-.53-.21-.66.07-.52.28-.34.52-.67L4413,17l.38-.34.14-.39.32,0s.3-.23.32-.23l.36.07.38.43,0,.57-.14,1.12,0,.62.2.35.21.4a.48.48,0,0,1-.21.18c-.13,0-.21,0-.4,0a.88.88,0,0,0-.51.07c-.05,0-.33.17-.34.42a.48.48,0,0,0,.2.4.72.72,0,0,0,.38.2c.3.06.39-.08.73-.1a1.46,1.46,0,0,1,.76.2c.25.15.22.26.55.54a5.71,5.71,0,0,0,.71.47,4,4,0,0,0,.83.47c.31.1.41,0,.56.16s.1.43.33.61.35,0,.64.2.18.22.34.27a.71.71,0,0,0,.56-.08c.28-.15.24-.29.62-.64s.37-.26.4-.41,0-.15-.19-.54-.13-.41-.22-.52-.19-.09-.37-.25a1.12,1.12,0,0,1-.26-.33.93.93,0,0,1-.09-.59.91.91,0,0,1,.45-.54c.22-.12.27,0,.7-.18s.35-.17.54-.18a1.15,1.15,0,0,1,.54.13,1.71,1.71,0,0,1,.55.45,5.41,5.41,0,0,1,.42.79,2.72,2.72,0,0,0,.61.74Z"/></g><g id="_16" data-name="16"><path class="cls-1" d="M4520.89,221.09l1.61,10.29c3.47,5.73,9.06,13.71,10.71,20.27,4,1.63,13.21,7.43,16.92,9.85,2.6,1.67,8.82,5.85,10.15,8.73,24.36,6.56,54.63,15.88,78.14,25.88a13.9,13.9,0,0,0,5.54,1.13l5.81,0a14.81,14.81,0,0,0,4.62-.76l8.53-2.84c10-3.79,22.49-9.47,32-14.11.94-.46,6.28-2.62,7.3-2.85,2.56-.6,6.1-1.22,9.11-1.93,1.2-.28,3.18-.63,4.4-.79l4.67-.59a28.72,28.72,0,0,1,7.69.28c6.69,1.35,10.47,2.73,18,4.79,6.61,1.81,32.58,1.32,39.76,1.4l-1.13-41.66c-16.37,3.54-36.82,7.22-53.58,6.19-4.57-2.36-13.87-6.87-18.61-8.73l-7.89-2.25-15.51-.28-13.54,4.22c-16.08,5.36-35.4,14.32-52.73,13.52-12-2.93-27.5-5.13-39.76-2.82-2.87-1.34-8.6-3.51-11.84-3.1-5.42-7.88-11.51-6.87-19.74-9.29-5-5.81-14.39-11.4-21.26-16.34a14.83,14.83,0,0,0-7.15-2.73h0l-.43.18a3.14,3.14,0,0,0-2,3.19C4520.76,220.25,4520.82,220.63,4520.89,221.09Z"/><path class="cls-1" d="M4591.73,213.75a14.69,14.69,0,0,0-3.44-3.44,15.49,15.49,0,0,0-5.57-2.42,17.07,17.07,0,0,0-6.81-.44,16.42,16.42,0,0,0-6.31,2.28,15.73,15.73,0,0,0-5.23,5.62,17,17,0,0,0-1.92,5.09,17.78,17.78,0,0,0,.21,7.94l.35.16.33-.31.13-.26.18.14.25,0,.25-.1.13-.22.32-.28.46-.18.46.19.53.36.47-.06.32-.18h.34s.29.24.3.26.57.36.57.36l.5,0,.44-.27.59-.32.52-.57s.17-.3.18-.3l.42.11a2.93,2.93,0,0,0,.26-.18l.31-.39.84-.8.62-.3.2-.09s.43.22.43.22l.55,0,.54-.36s.21-.22.26-.19l.4.24.68.46.53,0h.47l.26-.17.16-.38,0-.21.51-.09.13-.23,0-1.26.19-.5,1.3-1.3.48-.95.32-1.36.81-.52,1.15-.94.62-1.19.75-.41s.74.06.87.09a10.16,10.16,0,0,0,1.18-.15l.81-.58.83-.13,1,.18.65.23.47-.24.15-.81,1.8,0Z"/><path class="cls-1" d="M4555.8,14.68l.18-.18a1.49,1.49,0,0,1,.52-.25l0,0,0,0,0,0,0,0,0,0v.14l-.08,0-.06,0,0,0,0,0,0,0-.05,0H4556l-.06,0-.05,0,0,0Z"/><path class="cls-1" d="M4724.37,25.17a11.94,11.94,0,0,1-2.51,2.43,11.41,11.41,0,0,1-4.78,2,11.53,11.53,0,0,1-4.38-.18,13,13,0,0,1-3.19-1.07A11.58,11.58,0,0,1,4704.7,24,12,12,0,0,1,4703,19.8a11,11,0,0,1-.12-2.83c.06.09.16.23.26.4a7.35,7.35,0,0,1,.49,1.09,11.51,11.51,0,0,0,.69,1.1,9.2,9.2,0,0,1,.56,1.34,11.91,11.91,0,0,0,.6,1.64,3.08,3.08,0,0,0,.79,1.06,2.86,2.86,0,0,0,.94.51l.12.1.16,0,.23-.06.15.1.23.05.52-.27,1-.56.27-.44.6-.35.81-.53,1.07-.52.58,0,.58-.16.33-.48.21-.6-.05-.51V19.2l.19-.42.33-.22.63-.43.66-.4.42-.18.22-.29.27.11s.32-.12.34-.11l.29.15.2.48-.12.49-.43.92-.19.52.07.35.07.4a.37.37,0,0,1-.23.09c-.12,0-.17-.08-.32-.15a.88.88,0,0,0-.46-.08c-.05,0-.33.06-.41.27a.5.5,0,0,0,.07.4.7.7,0,0,0,.27.27c.24.13.36,0,.64.11a1.22,1.22,0,0,1,.6.38c.17.2.12.28.32.61a6.4,6.4,0,0,0,.48.59,3.85,3.85,0,0,0,.58.63c.24.16.34.13.43.28s0,.4.12.61.29.11.49.35.1.23.22.32a.61.61,0,0,0,.5.08c.28,0,.28-.18.7-.37s.38-.12.45-.24,0-.14,0-.51,0-.39,0-.51-.14-.13-.25-.31A1.29,1.29,0,0,1,4721,23a.81.81,0,0,1,.09-.53.8.8,0,0,1,.53-.34c.22,0,.23,0,.64,0a2.1,2.1,0,0,1,.51,0,.89.89,0,0,1,.42.26,1.39,1.39,0,0,1,.35.53,4.22,4.22,0,0,1,.14.79,2.78,2.78,0,0,0,.32.8Z"/></g><g id="_17" data-name="17"><path class="cls-1" d="M4820.89,221.09l1.61,10.29c3.47,5.73,9.06,13.71,10.71,20.27,4,1.63,13.21,7.43,16.92,9.85,2.6,1.67,8.82,5.85,10.15,8.73,24.36,6.56,54.63,15.88,78.14,25.88a13.9,13.9,0,0,0,5.54,1.13l5.81,0a14.81,14.81,0,0,0,4.62-.76l8.53-2.84c10-3.79,22.49-9.47,32-14.11.94-.46,6.28-2.62,7.3-2.85,2.56-.6,6.1-1.22,9.11-1.93,1.2-.28,3.18-.63,4.4-.79l4.67-.59a28.72,28.72,0,0,1,7.69.28c6.69,1.35,10.47,2.73,18,4.79,6.61,1.81,32.58,1.32,39.76,1.4l-1.13-41.66c-16.37,3.54-36.82,7.22-53.58,6.19-4.57-2.36-13.87-6.87-18.61-8.73l-7.89-2.25-15.51-.28-13.54,4.22c-16.08,5.36-35.4,14.32-52.73,13.52-12-2.93-27.5-5.13-39.76-2.82-2.87-1.34-8.6-3.51-11.84-3.1-5.42-7.88-11.51-6.87-19.74-9.29-5-5.81-14.39-11.4-21.26-16.34a14.83,14.83,0,0,0-7.15-2.73h0l-.43.18a3.14,3.14,0,0,0-2,3.19C4820.76,220.25,4820.82,220.63,4820.89,221.09Z"/><path class="cls-1" d="M4883,222.72a10,10,0,0,0-1.2-3.18,10.91,10.91,0,0,0-2.86-3.13,11.91,11.91,0,0,0-4.21-2.22,11.31,11.31,0,0,0-4.67-.34,10.94,10.94,0,0,0-4.93,2.08,12.21,12.21,0,0,0-2.67,2.69,12.34,12.34,0,0,0-2.13,5.12l.17.2.3-.11.16-.12.07.13.16.09h.19l.14-.11.29-.08.34,0,.24.25.23.38.32.09.26,0,.21.1a1.75,1.75,0,0,1,.11.24s.27.4.27.4l.33.11.35,0,.47,0,.49-.22.21-.14.23.19.22,0,.3-.16.77-.27h.63a2.39,2.39,0,0,1,.21.26l.36.13.45-.08s.19-.08.22,0,.18.26.19.27.3.48.3.48l.32.17.31.13.21,0,.21-.2.05-.14.35.1.15-.12.37-.79.26-.27,1.2-.45.57-.47.6-.77.66-.1,1-.28.73-.57.6-.05.53.3a6.31,6.31,0,0,0,.79.25l.68-.14.57.15.56.39.35.33.37,0,.33-.47,1.15.48Z"/><path class="cls-1" d="M4855.8,14.68l.18-.18a1.49,1.49,0,0,1,.52-.25l0,0,0,0,0,0,0,0,0,0v.14l-.08,0-.06,0,0,0,0,0,0,0-.05,0H4856l-.06,0-.05,0,0,0Z"/><path class="cls-1" d="M5019.58,25.05a9.55,9.55,0,0,1-2.49,1.29,8.79,8.79,0,0,1-7.43-.72,10.7,10.7,0,0,1-2.2-1.55,9.62,9.62,0,0,1-1.71-2.12,10.15,10.15,0,0,1-1-2.31,9.91,9.91,0,0,1-.32-3.63,9,9,0,0,1,.56-2.2c0,.09.07.22.11.38a5.36,5.36,0,0,1,.12.94,8.83,8.83,0,0,0,.28,1,8.3,8.3,0,0,1,.12,1.16,9.59,9.59,0,0,0,.08,1.39,2.65,2.65,0,0,0,.36,1,2.47,2.47,0,0,0,.6.61l.08.1.12,0h.19l.1.11.16.1.46-.09.91-.19.31-.28.54-.13.74-.22.94-.15.45.12h.48l.36-.29.31-.42.07-.4.15-.48.24-.28.31-.09.58-.18.6-.16.36,0,.24-.17.17.14a2.8,2.8,0,0,0,.29,0l.19.18.05.41-.21.35-.54.61-.27.35,0,.29,0,.32a.33.33,0,0,1-.2,0c-.1,0-.12-.11-.21-.19a.61.61,0,0,0-.34-.17s-.26,0-.37.11a.35.35,0,0,0,0,.32.47.47,0,0,0,.14.27c.15.16.27.11.47.24a1,1,0,0,1,.37.42c.09.2,0,.25.11.55,0,.07.09.24.23.56.22.51.25.56.3.61s.22.19.26.32-.11.3-.05.5.2.15.3.38,0,.2.09.29a.51.51,0,0,0,.36.18c.23,0,.26-.07.63-.13s.32,0,.4-.08,0-.1.1-.39.1-.3.08-.4-.07-.13-.11-.3a.81.81,0,0,1,0-.3.63.63,0,0,1,.19-.38.66.66,0,0,1,.48-.14c.18,0,.17.09.49.18s.27,0,.38.11a.72.72,0,0,1,.27.3,1,1,0,0,1,.14.48,2.73,2.73,0,0,1-.07.64,2.24,2.24,0,0,0,.06.68Z"/></g><g id="_18" data-name="18"><path class="cls-1" d="M5120.89,221.09l1.61,10.29c3.47,5.73,9.06,13.71,10.71,20.27,4,1.63,13.21,7.43,16.92,9.85,2.6,1.67,8.82,5.85,10.15,8.73,24.36,6.56,54.63,15.88,78.14,25.88a13.9,13.9,0,0,0,5.54,1.13l5.81,0a14.81,14.81,0,0,0,4.62-.76l8.53-2.84c10-3.79,22.49-9.47,32-14.11.94-.46,6.28-2.62,7.3-2.85,2.56-.6,6.1-1.22,9.11-1.93,1.2-.28,3.18-.63,4.4-.79l4.67-.59a28.72,28.72,0,0,1,7.69.28c6.69,1.35,10.47,2.73,18,4.79,6.61,1.81,32.58,1.32,39.76,1.4l-1.13-41.66c-16.37,3.54-36.82,7.22-53.58,6.19-4.57-2.36-13.87-6.87-18.61-8.73l-7.89-2.25-15.51-.28-13.54,4.22c-16.08,5.36-35.4,14.32-52.73,13.52-12-2.93-27.5-5.13-39.76-2.82-2.87-1.34-8.6-3.51-11.84-3.1-5.42-7.88-11.51-6.87-19.74-9.29-5-5.81-14.39-11.4-21.26-16.34a14.83,14.83,0,0,0-7.15-2.73h0l-.43.18a3.14,3.14,0,0,0-2,3.19C5120.76,220.25,5120.82,220.63,5120.89,221.09Z"/><path class="cls-1" d="M5173,225.16a5.77,5.77,0,0,0-.05-2,6.42,6.42,0,0,0-1-2.31,7,7,0,0,0-1.91-2.07,6.69,6.69,0,0,0-2.54-1.11,6.44,6.44,0,0,0-3.16.19,7,7,0,0,0-2,1,7.3,7.3,0,0,0-2.21,2.44l.06.14h.19l.11,0,0,.09.07.08.1,0,.1,0h.18l.19.08.08.19.06.26.15.11.15,0,.1.09,0,.17.07.27.16.13.21,0,.27.08.31,0a.7.7,0,0,1,.14,0s.09.14.1.15l.13,0,.2,0h.48l.27.08.08,0s.07.19.07.19l.18.15.26,0s.13,0,.13,0a1.8,1.8,0,0,1,.05.19s.08.33.08.33l.15.16.14.13.13,0,.15-.07.05-.06.18.12.11,0,.36-.37.2-.09.76,0,.41-.15.49-.31.39.07.61,0,.52-.17.35.09.23.27a3.54,3.54,0,0,0,.4.29l.4.06.29.2.24.33.13.25.21.06.27-.2.55.5Z"/><path class="cls-1" d="M5155.8,14.68l.18-.18a1.49,1.49,0,0,1,.52-.25l0,0,0,0,0,0,0,0,0,0v.14l-.08,0-.06,0,0,0,0,0,0,0-.05,0H5156l-.06,0-.05,0,0,0Z"/><path class="cls-1" d="M5315.23,21.7a6.75,6.75,0,0,1-1.88.5,6.36,6.36,0,0,1-2.85-.32,6.45,6.45,0,0,1-2.07-1.27,6.89,6.89,0,0,1-1.26-1.38,6.51,6.51,0,0,1-.85-1.68,7,7,0,0,1-.32-1.72,6.85,6.85,0,0,1,.32-2.5,6.19,6.19,0,0,1,.71-1.4c0,.06,0,.15,0,.27a5.17,5.17,0,0,1-.06.65,6.75,6.75,0,0,0,0,.72,4.94,4.94,0,0,1-.09.8,5.39,5.39,0,0,0-.15,1,1.78,1.78,0,0,0,.09.73,1.66,1.66,0,0,0,.32.5l0,.08.08,0,.13,0,0,.09.1.09h1l.25-.14h.39l.53,0,.66,0,.28.15.33.07.29-.14.26-.23.12-.27.16-.3.21-.15.22,0,.42,0h.43l.25,0,.19-.08.1.13.19,0,.1.15,0,.28-.19.21-.46.33-.23.2-.06.19-.07.21a.18.18,0,0,1-.14,0c-.06,0-.06-.08-.11-.16a.49.49,0,0,0-.21-.16.29.29,0,0,0-.27,0,.28.28,0,0,0-.07.21.41.41,0,0,0,.06.21c.08.12.16.11.28.22a.7.7,0,0,1,.19.35c0,.14,0,.17,0,.38a2.74,2.74,0,0,0,.07.42,3.41,3.41,0,0,0,.11.46c.08.14.13.15.13.25s-.11.19-.1.33.11.13.14.3,0,.14,0,.21a.38.38,0,0,0,.22.18c.15.05.19,0,.44,0s.22,0,.28,0,0-.06.14-.25.1-.19.11-.26,0-.1,0-.22a.46.46,0,0,1,0-.2.39.39,0,0,1,.18-.24.48.48,0,0,1,.35,0c.12,0,.1.09.3.19s.18.07.25.14a.48.48,0,0,1,.13.24.7.7,0,0,1,0,.35,3,3,0,0,1-.14.42,1.37,1.37,0,0,0-.07.47Z"/></g><g id="_18_copy_2" data-name="18 copy 2"><path class="cls-1" d="M5420.89,221.09l1.61,10.29c3.47,5.73,9.06,13.71,10.71,20.27,4,1.63,13.21,7.43,16.92,9.85,2.6,1.67,8.82,5.85,10.15,8.73,24.36,6.56,54.63,15.88,78.14,25.88a13.9,13.9,0,0,0,5.54,1.13l5.81,0a14.81,14.81,0,0,0,4.62-.76l8.53-2.84c10-3.79,22.49-9.47,32-14.11.94-.46,6.28-2.62,7.3-2.85,2.56-.6,6.1-1.22,9.11-1.93,1.2-.28,3.18-.63,4.4-.79l4.67-.59a28.72,28.72,0,0,1,7.69.28c6.69,1.35,10.47,2.73,18,4.79,6.61,1.81,32.58,1.32,39.76,1.4l-1.13-41.66c-16.37,3.54-36.82,7.22-53.58,6.19-4.57-2.36-13.87-6.87-18.61-8.73l-7.89-2.25-15.51-.28-13.54,4.22c-16.08,5.36-35.4,14.32-52.73,13.52-12-2.93-27.5-5.13-39.76-2.82-2.87-1.34-8.6-3.51-11.84-3.1-5.42-7.88-11.51-6.87-19.74-9.29-5-5.81-14.39-11.4-21.26-16.34a14.83,14.83,0,0,0-7.15-2.73h0l-.43.18a3.14,3.14,0,0,0-2,3.19C5420.76,220.25,5420.82,220.63,5420.89,221.09Z"/><path class="cls-1" d="M5455.8,14.68l.18-.18a1.49,1.49,0,0,1,.52-.25l0,0,0,0,0,0,0,0,0,0v.14l-.08,0-.06,0,0,0,0,0,0,0-.05,0H5456l-.06,0-.05,0,0,0Z"/></g><g id="_18_copy_3" data-name="18 copy 3"><path class="cls-1" d="M5720.89,221.09l1.61,10.29c3.47,5.73,9.06,13.71,10.71,20.27,4,1.63,13.21,7.43,16.92,9.85,2.6,1.67,8.82,5.85,10.15,8.73,24.36,6.56,54.63,15.88,78.14,25.88a13.9,13.9,0,0,0,5.54,1.13l5.81,0a14.81,14.81,0,0,0,4.62-.76l8.53-2.84c10-3.79,22.49-9.47,32-14.11.94-.46,6.28-2.62,7.3-2.85,2.56-.6,6.1-1.22,9.11-1.93,1.2-.28,3.18-.63,4.4-.79l4.67-.59a28.72,28.72,0,0,1,7.69.28c6.69,1.35,10.47,2.73,18,4.79,6.61,1.81,32.58,1.32,39.76,1.4l-1.13-41.66c-16.37,3.54-36.82,7.22-53.58,6.19-4.57-2.36-13.87-6.87-18.61-8.73l-7.89-2.25-15.51-.28-13.54,4.22c-16.08,5.36-35.4,14.32-52.73,13.52-12-2.93-27.5-5.13-39.76-2.82-2.87-1.34-8.6-3.51-11.84-3.1-5.42-7.88-11.51-6.87-19.74-9.29-5-5.81-14.39-11.4-21.26-16.34a14.83,14.83,0,0,0-7.15-2.73h0l-.43.18a3.14,3.14,0,0,0-2,3.19C5720.76,220.25,5720.82,220.63,5720.89,221.09Z"/><path class="cls-1" d="M5755.8,14.68l.18-.18a1.49,1.49,0,0,1,.52-.25l0,0,0,0,0,0,0,0,0,0v.14l-.08,0-.06,0,0,0,0,0,0,0-.05,0H5756l-.06,0-.05,0,0,0Z"/></g><g id="_18_copy_4" data-name="18 copy 4"><path class="cls-1" d="M6020.89,222.09l1.61,10.29c3.47,5.73,9.06,13.71,10.71,20.27,4,1.63,13.21,7.43,16.92,9.85,2.6,1.67,8.82,5.85,10.15,8.73,24.36,6.56,54.63,15.88,78.14,25.88a13.9,13.9,0,0,0,5.54,1.13l5.81,0a14.81,14.81,0,0,0,4.62-.76l8.53-2.84c10-3.79,22.49-9.47,32-14.11.94-.46,6.28-2.62,7.3-2.85,2.56-.6,6.1-1.22,9.11-1.93,1.2-.28,3.18-.63,4.4-.79l4.67-.59a28.72,28.72,0,0,1,7.69.28c6.69,1.35,10.47,2.73,18,4.79,6.61,1.81,32.58,1.32,39.76,1.4l-1.13-41.66c-16.37,3.54-36.82,7.22-53.58,6.19-4.57-2.36-13.87-6.87-18.61-8.73l-7.89-2.25-15.51-.28-13.54,4.22c-16.08,5.36-35.4,14.32-52.73,13.52-12-2.93-27.5-5.13-39.76-2.82-2.87-1.34-8.6-3.51-11.84-3.1-5.42-7.88-11.51-6.87-19.74-9.29-5-5.81-14.39-11.4-21.26-16.34a14.83,14.83,0,0,0-7.15-2.73h0l-.43.18a3.14,3.14,0,0,0-2,3.19C6020.76,221.25,6020.82,221.63,6020.89,222.09Z"/><path class="cls-1" d="M6055.8,14.68l.18-.18a1.49,1.49,0,0,1,.52-.25l0,0,0,0,0,0,0,0,0,0v.14l-.08,0-.06,0,0,0,0,0,0,0-.05,0H6056l-.06,0-.05,0,0,0Z"/></g></svg>
