<svg id="gp_logo" data-name="gp logo" xmlns="http://www.w3.org/2000/svg" width="224.67" height="226.41" viewBox="0 0 224.67 226.41"><defs><style>.cls-1{fill:#49b048;}</style></defs><path class="cls-1" d="M34.17,163.06l1.15,7.4c2.5,4.12,6.52,9.86,7.71,14.58,2.88,1.17,9.49,5.34,12.16,7.08,1.87,1.2,6.34,4.2,7.3,6.28C80,203.11,101.76,209.81,118.66,217a10.31,10.31,0,0,0,4,.81l4.18,0a10.75,10.75,0,0,0,3.32-.55l6.13-2c7.17-2.72,16.17-6.81,23-10.15.67-.33,4.51-1.88,5.24-2.05,1.85-.43,4.39-.87,6.56-1.38.86-.2,2.28-.46,3.16-.57l3.35-.43a20.57,20.57,0,0,1,5.54.21c4.81,1,7.52,2,12.92,3.44,4.76,1.3,23.42.95,28.58,1l-.81-30c-11.77,2.55-26.47,5.2-38.52,4.45-3.28-1.69-10-4.93-13.38-6.27l-5.67-1.62-11.15-.2-9.73,3c-11.57,3.85-25.46,10.3-37.91,9.72-8.65-2.11-19.78-3.69-28.59-2-2.06-1-6.19-2.53-8.51-2.23-3.9-5.67-8.28-4.94-14.2-6.68-3.61-4.18-10.34-8.2-15.28-11.75a10.57,10.57,0,0,0-5.14-2h0l-.31.12a2.27,2.27,0,0,0-1.42,2.3C34.07,162.46,34.12,162.73,34.17,163.06Z"/><path class="cls-1" d="M65.53,23.92a69,69,0,0,0-17,15.58c-7.79,10-10.7,19.56-12.57,25.91a81.16,81.16,0,0,0-3.45,32.18A77.4,77.4,0,0,0,42,128a74.47,74.47,0,0,0,25.55,25.91A82,82,0,0,0,91.28,164a83.91,83.91,0,0,0,37.7.6l.82-1.59-1.42-1.65-1.19-.65.68-.84.15-1.16-.43-1.24-1-.63-1.24-1.6-.76-2.2,1-2.15,1.83-2.43-.2-2.23-.82-1.59.11-1.57s1.19-1.34,1.26-1.36,1.83-2.66,1.83-2.66l-.1-2.38-1.19-2.13-1.37-2.88-2.59-2.56a16,16,0,0,1-1.39-.93c0-.08.58-1.9.58-2s-.78-1.27-.78-1.27l-1.8-1.52-3.6-4.15-1.32-3a7.74,7.74,0,0,1-.35-.93c0-.13,1.11-2,1.11-2l-.08-2.6-1.59-2.61s-1-1-.86-1.29,1.19-1.77,1.24-1.85l2.3-3.14.26-2.48.07-2.25-.76-1.26L115.58,95l-1,.05-.3-2.46-1.09-.68-6-.3-2.33-1L99,84.13,94.62,81.7l-6.38-1.82L86,75.94,81.7,70.32l-5.48-3.19L74.4,63.49s.46-3.49.61-4.1a52.89,52.89,0,0,0-.46-5.62l-2.58-4-.46-3.94,1.06-4.56,1.22-3L72.73,36l-3.8-.91.15-8.5Z"/><path class="cls-1" d="M83.83,14.81a39.81,39.81,0,0,1,8.76-4A42,42,0,0,1,114,10.05l.41,1.92-1.67,1.37-1.42.91v1.87l.45,1.93-.3,2.32-.91,1L110.13,23l-.81,1.42-3.5.05-2.28-.1-1.92.4-1.93,1-1.72,1-2.49.3-2.94-1-2.23-1.82-.66-1-1.87-.51-2.43-.45S84.18,20.17,84.13,20s-.86-3.39-.86-3.39Z"/><path class="cls-1" d="M130.51,11a76.64,76.64,0,0,1,21.28,8.2,75.35,75.35,0,0,1,24.94,22.77c7,10.45,9.43,20.09,11,26.42a86,86,0,0,1,2.43,21.86,79.36,79.36,0,0,1-32.84,61.94,72.13,72.13,0,0,1-16.43,8.5c.36-.65.92-1.6,1.68-2.7a48.44,48.44,0,0,1,5.09-5.84c2.51-2.83,1.86-3.3,4.64-7.1a59.49,59.49,0,0,1,6.38-7c5-5,5.79-5.07,8.06-8.05a20.76,20.76,0,0,0,4.11-7.59,18.18,18.18,0,0,0,.45-7l.23-1-.55-.83-1-1.19.18-1.21-.31-1.47-3.06-2.35-6.06-4.48-3.39-.38-3.7-2.63-5.38-3.32-6-4.91-1.72-3.39-2.53-3-3.75-.66-4.16.4-2.89,1.72-3.7,1.72h-3l-2.18-1.36L114,84.54l-4.2-2.84-2.23-2-2.34-.5s0-1.62,0-1.88-1.57-1.57-1.57-1.72.1-2.12.1-2.12L105.92,71l3.25-.61h6.64l3.6-.25,1.87-1.42,2.18-1.52a2.47,2.47,0,0,1,1.17,1.11c.33.73,0,1.25,0,2.33a5.2,5.2,0,0,0,.81,2.94c.18.27,1.21,1.76,2.68,1.67a3.2,3.2,0,0,0,2.18-1.47,4.53,4.53,0,0,0,.86-2.38c.14-1.75-.77-2.19-1.11-4.1a8.09,8.09,0,0,1,.61-4.55c.7-1.6,1.33-1.51,2.73-3.59a46,46,0,0,0,2.18-4.46c1.91-4.11,2-4.57,2.13-5.16.32-1.88-.11-2.38.51-3.34,1-1.48,2.42-.94,3.29-2.38.77-1.26-.15-2,.71-3.84.57-1.2,1.12-1.21,1.32-2.18a4.34,4.34,0,0,0-.91-3.19c-1-1.5-1.83-1.19-4.16-3.13-1.56-1.32-1.75-1.92-2.63-2-.69,0-.86.3-3,1.47s-2.32,1-2.84,1.67c-.66.8-.4,1.17-1.22,2.33a6.57,6.57,0,0,1-1.72,1.72,5.13,5.13,0,0,1-3.35,1,5.19,5.19,0,0,1-3.44-2.23c-.88-1.18-.43-1.5-1.57-3.89-.84-1.75-1.23-1.89-1.42-3a6.29,6.29,0,0,1,.35-3.24,9.46,9.46,0,0,1,2.23-3.49c1.54-1.6,2.47-1.71,4.26-3a17,17,0,0,0,3.85-4Z"/></svg>
